<svg xmlns="http://www.w3.org/2000/svg" viewBox="0 0 333 463"><defs><style>.cls-1{fill:#aaadae;}.cls-2{fill:#fff;}</style></defs><title>Artboard 1</title><g id="Layer_2" data-name="Layer 2"><rect class="cls-1" x="-160.24" y="-98.71" width="689.36" height="665.87" rx="12"/></g><g id="Layer_1" data-name="Layer 1"><rect class="cls-2" x="44.99" y="363.04" width="6.4" height="41.67"/><path class="cls-2" d="M75.13,390.89l-5.91.82A9.24,9.24,0,0,0,65.08,393a3.91,3.91,0,0,0-1.39,3.43A3.77,3.77,0,0,0,65,399.39a4.94,4.94,0,0,0,3.42,1.14,6.32,6.32,0,0,0,4.83-2,7.31,7.31,0,0,0,1.91-5.16v-2.44m6.16,13.82H75.1v-4.4H75a9.3,9.3,0,0,1-8.55,5.06,9,9,0,0,1-6.5-2.25,7.87,7.87,0,0,1-2.35-6c0-5.3,3-8.41,9.18-9.29l8.36-1.18c0-4-1.9-6-5.72-6a13.57,13.57,0,0,0-9.07,3.46v-5.58a19.76,19.76,0,0,1,10.28-2.64q10.66,0,10.67,10.5v18.31"/><path class="cls-2" d="M113.56,404.71h-6.38v-4.45h-.11a9.16,9.16,0,0,1-8.63,5.11c-6.65,0-10-4-10-12V376.56h6.38v16.17q0,7.59,5.85,7.58a5.89,5.89,0,0,0,4.66-2.08,8.05,8.05,0,0,0,1.83-5.47v-16.2h6.38v28.15"/><path class="cls-2" d="M138.16,382.64a5.24,5.24,0,0,0-3.33-.91,5.67,5.67,0,0,0-4.72,2.56,11.36,11.36,0,0,0-1.9,6.95v13.47h-6.38V376.56h6.38v5.8h.11a9.89,9.89,0,0,1,2.87-4.63,6.53,6.53,0,0,1,4.33-1.66,5.23,5.23,0,0,1,2.64.52v6.05"/><path class="cls-2" d="M149,404.71h-6.38V376.56H149v28.15m-3.16-34.06a3.81,3.81,0,0,1-2.68-1,3.37,3.37,0,0,1-1.12-2.59,3.46,3.46,0,0,1,1.12-2.61,3.79,3.79,0,0,1,2.68-1,3.91,3.91,0,0,1,2.75,1,3.44,3.44,0,0,1,1.12,2.61,3.4,3.4,0,0,1-1.12,2.55,3.89,3.89,0,0,1-2.75,1"/><path class="cls-2" d="M175,387.86a8.13,8.13,0,0,0-1.62-5.34,5.44,5.44,0,0,0-4.4-1.92,6.16,6.16,0,0,0-4.66,2,9.25,9.25,0,0,0-2.35,5.25h13m6.16,4.51H162a8.08,8.08,0,0,0,2.41,6,9,9,0,0,0,6.31,2.12,13.93,13.93,0,0,0,8.27-2.7V403q-3.84,2.42-10.17,2.42c-4.14,0-7.38-1.28-9.75-3.83s-3.53-6.15-3.53-10.79A15,15,0,0,1,159.43,380a12.76,12.76,0,0,1,9.66-4.14c3.85,0,6.82,1.24,8.94,3.72s3.16,5.91,3.16,10.3v2.45"/><rect class="cls-2" x="183.1" y="409.61" width="23.37" height="3.27"/><path class="cls-2" d="M213.25,405.32a3.91,3.91,0,0,1-2.8-1.09,3.41,3.41,0,0,1-1.16-2.6,3.57,3.57,0,0,1,1.16-2.64,4.21,4.21,0,0,1,5.65,0,3.52,3.52,0,0,1,1.17,2.64,3.43,3.43,0,0,1-1.17,2.6,4,4,0,0,1-2.85,1.09"/><rect class="cls-2" x="220.03" y="409.61" width="23.37" height="3.27"/><path class="cls-2" d="M250.18,405.32a3.91,3.91,0,0,1-2.8-1.09,3.41,3.41,0,0,1-1.16-2.6,3.57,3.57,0,0,1,1.16-2.64,4.21,4.21,0,0,1,5.65,0,3.52,3.52,0,0,1,1.17,2.64,3.43,3.43,0,0,1-1.17,2.6,4,4,0,0,1-2.85,1.09"/><rect class="cls-2" x="256.96" y="409.61" width="23.37" height="3.27"/><rect class="cls-2" x="284.47" y="363.04" width="6.4" height="41.67"/></g></svg>