<?xml version="1.0" encoding="UTF-8"?>
<svg id="Layer_1" data-name="Layer 1" xmlns="http://www.w3.org/2000/svg" viewBox="0 0 92 44">
  <defs>
    <style>
      .cls-1 {
        fill-rule: evenodd;
      }
    </style>
  </defs>
  <g id="layer1">
    <g id="g2402">
      <g id="g3035">
        <path id="path2405" d="m51.22,25.52l-6.91-12.04,5-2.86,8.63,14.92h-6.72"/>
        <path id="path2407" d="m32.76,23.83l5-2.89,2.63,4.57h-6.65l-.97-1.69"/>
        <path id="path2409" d="m42.56,33.18h1.4v-5.74h-1.4v5.74Z"/>
        <path id="path2411" d="m60.31,33.31c-1.59,0-2.56-.81-2.6-1.98h1.49c0,.36.23.91,1.2.91.65,0,.94-.36.94-.65-.03-.45-.62-.49-1.23-.58-.62-.1-1.1-.23-1.49-.39-.49-.23-.81-.78-.81-1.4,0-1.04.91-1.82,2.37-1.82s2.34.75,2.43,1.88h-1.43c0-.29-.06-.78-.94-.78-.58,0-.94.1-.97.52,0,.58,1.2.55,2.11.81.91.23,1.46.78,1.46,1.56.06,1.4-1.1,1.91-2.53,1.91"/>
        <path id="path2415" d="m38.6,18.71l5-2.86,5.61,9.67h-5.19v1.4h-1.4v-1.43l-4.02-6.78"/>
        <path id="path2417" class="cls-1" d="m38.73,33.31c-1.65,0-2.98-1.36-2.98-2.98s1.36-2.95,2.98-2.95c.65,0,1.2.16,1.69.52v-2.4h1.4v7.69h-1.4v-.36c-.49.32-1.04.49-1.69.49h0Zm-1.62-2.95c0,.91.78,1.62,1.69,1.62s1.65-.75,1.65-1.62-.78-1.65-1.65-1.65c-.94,0-1.69.78-1.69,1.65"/>
        <path id="path2419" class="cls-1" d="m49.21,25.52h1.4v7.69h-1.4v-.36c-.49.32-1.07.52-1.69.52-1.62,0-2.98-1.36-2.98-2.98s1.36-2.95,2.98-2.95c.65,0,1.23.16,1.69.52v-2.43h0Zm-3.28,4.83c0,.91.78,1.62,1.62,1.62.91,0,1.69-.75,1.69-1.62s-.78-1.65-1.69-1.65-1.62.78-1.62,1.65"/>
        <path id="path2421" class="cls-1" d="m54.08,33.31c-1.62,0-2.98-1.36-2.98-2.98s1.36-2.95,2.98-2.95c.65,0,1.23.16,1.69.52v-.45h1.4v5.74h-1.43v-.36c-.45.32-1.04.49-1.65.49h0Zm-1.59-2.95c0,.91.78,1.62,1.65,1.62s1.62-.75,1.62-1.62-.75-1.65-1.62-1.65-1.65.78-1.65,1.65"/>
        <path id="path2423" class="cls-1" d="m30.52,30.35c0,.91.78,1.62,1.65,1.62s1.69-.75,1.69-1.62-.78-1.65-1.69-1.65-1.65.78-1.65,1.65Zm1.62,2.95c-1.62,0-2.98-1.36-2.98-2.98s1.36-2.95,2.98-2.95c.65,0,1.23.16,1.69.52v-.45h1.4v5.74h-1.4v-.36c-.45.32-1.04.49-1.69.49"/>
      </g>
    </g>
  </g>
</svg>