<?xml version="1.0" encoding="UTF-8"?>
<svg id="Layer_2" data-name="Layer 2" xmlns="http://www.w3.org/2000/svg" viewBox="0 0 92 44">
  <path d="m18.52,25.3l.97-2.62.92,2.62h-1.89Zm2.83,2.64h.89l-2.3-6.31h-.88l-2.4,6.31h.89l.71-1.94h2.41s.69,1.94.69,1.94Zm4.2-1.34c0,.52-.42.79-1.13.79-.58,0-.96-.16-1.18-.53l-.85.15c.33.68,1.02,1,1.99,1,1.32,0,2.01-.73,2.01-1.51,0-1-.92-1.27-1.98-1.49-.51-.1-1.11-.29-1.11-.75,0-.32.32-.7.95-.7s1.03.44,1.09.61l.75-.31c-.34-.65-1.03-.92-1.75-.92-1.11,0-1.85.55-1.85,1.42,0,.99.85,1.18,1.67,1.36.71.15,1.39.33,1.39.87m2.61-4.98l-.83.35v1.16h-.76v.67h.76v3.08c-.01.63-.01,1.08.92,1.08.3,0,.64-.06.78-.08v-.67c-.16.05-.37.11-.53.11-.34,0-.34-.24-.34-.81v-2.72h.87v-.67h-.87v-1.51h0Zm1.6,1.51v4.8h.81v-2.21c0-.41-.01-.9.2-1.25.26-.43.65-.59,1.44-.59v-.83c-.32.01-1.19.03-1.64.94v-.86h-.81Zm7.21-1.51v.78h3.59l-3.59,4.71v.82h4.64v-.76h-3.66l3.57-4.77v-.79h-4.54,0Zm9.68,1.51v4.8h.81v-2.72c0-.36,0-.72.36-1.07.25-.25.56-.36.92-.36.44,0,.89.2,1.03.66.05.16.05.3.05.79v2.71h.8v-2.84c0-.41,0-.7-.08-.98-.23-.79-.96-1.1-1.58-1.1-.28,0-1.05.07-1.5.85v-.73s-.81,0-.81,0Zm12.51,3.64c-.17.33-.49.63-1.11.63-.54,0-1.45-.34-1.45-1.92,0-.43.08-1.93,1.4-1.93.67,0,.98.36,1.12.68l.76-.32c-.47-.77-1.3-.96-1.9-.96-1.53,0-2.27,1.23-2.27,2.59,0,1.17.64,2.48,2.34,2.48.98,0,1.53-.48,1.83-.95l-.71-.3h0Zm-16.4-1.74h2.54c-.07-1.25-.79-1.47-1.28-1.47-.69,0-1.18.51-1.27,1.47m3.21,1.98c-.28.47-.81,1-1.85,1-1.42,0-2.23-.96-2.23-2.58,0-1.8,1.19-2.49,2.2-2.49.88,0,1.72.49,2.01,1.69.09.41.09.77.09.97h-3.45c-.02.8.32,1.82,1.45,1.8.46,0,.79-.22,1-.55l.78.15h0Zm5.95-1.98h2.55c-.07-1.25-.8-1.47-1.28-1.47-.69,0-1.18.51-1.27,1.47m3.21,1.98c-.28.47-.81,1-1.85,1-1.42,0-2.23-.96-2.23-2.58,0-1.8,1.19-2.49,2.2-2.49.88,0,1.72.49,2.01,1.69.09.41.09.77.09.97h-3.45c-.02.8.32,1.82,1.45,1.8.46,0,.79-.22,1-.55l.78.15h0Zm9.15.92h-.84s-.07-.34-.1-.7c-.24.25-.69.77-1.61.77s-1.62-.55-1.62-1.36c0-.25.07-.51.21-.72.28-.41.78-.73,2.21-.84l.76-.06v-.12c0-.5,0-1.33-1.07-1.33-.67,0-.9.33-.98.62l-.74-.31s.02-.05.04-.08c.28-.53.84-.85,1.65-.85.44,0,1.02.11,1.4.41.53.41.52,1.2.52,1.2l.03,2.46s.03.72.13.92m-1.1-1.32c.12-.26.13-.37.13-1.08-.31.05-.74.11-1.26.22-.89.19-1.04.53-1.04.86,0,.39.3.71.9.71.56,0,1.03-.22,1.27-.72m-26.78,1.32h-.84s-.07-.34-.1-.7c-.24.25-.7.77-1.61.77s-1.62-.55-1.62-1.36c0-.25.07-.51.21-.72.28-.41.78-.73,2.21-.84l.76-.06v-.12c0-.5,0-1.33-1.07-1.33-.67,0-.9.33-.98.62l-.74-.31s.03-.05.04-.08c.29-.53.84-.85,1.65-.85.44,0,1.02.11,1.4.41.53.41.52,1.2.52,1.2l.03,2.46s.03.72.13.92m-1.1-1.32c.12-.26.13-.37.13-1.08-.31.05-.74.11-1.26.22-.89.19-1.05.53-1.05.86,0,.39.3.71.9.71.56,0,1.03-.22,1.27-.72"/>
  <path d="m69.53,23.91c-.12.08-.25.16-.37.24-1.45-.8-4.55-2.35-4.82-2.49-.29-.15-.79-.35-.73-.83.09-.67,1.25-2.14,1.75-2.75,2.68-3.28,3.88-4.29,4.68-4.19.85.11,1.32.99,1.38,5.1-.47-.15-1-.3-1.55-.44-.05-.6-.16-1.5-.2-1.81-.05-.35-.12-.48-.26-.5-.16-.02-.55.35-.91.72-.16.17-.62.63-1.12,1.13-.42-.03-.7.06-.86.26-.12.17-.15.39-.08.67-.27.27-.51.51-.65.65-.56.56-1.15,1.02-1.18,1.25-.02.19.26.38.66.62.98.59,3.41,1.9,4.26,2.36m3.76-4.1c-.94-.33-3.28-1.2-5.75-1.53-.85-.11-1.19.19-.84,1,.34.8,1.24,2.13,2.17,3.14.94,1,1.95,1.27,2.27-.27.01-.06.02-.11.03-.17.08-.4.14-.78.17-1.12-.41-.19-.88-.39-1.34-.59.03.35.07.97.09,1.44,0,.06,0,.12,0,.18.03.76-.23.76-.67.45-.51-.36-2.05-2.41-2.23-3.31,0-.06.02-.06.05-.05.01,0,.02,0,.04.02h0c.35.14,1.51.6,2.69,1.09.47.2.95.4,1.37.6.42.19.79.37,1.07.52.51.27.71.46.5.68-1.06,1.08-4.78,2.62-6.06,4.51,0,0,0,0-.01.02-.01.02-.03.04-.04.07,0,0,0,.01-.01.02-.06.12-.15.32-.19.56-.05.41.16.79.76.95.15.04.32.08.51.1.03,0,.07,0,.1,0,1.14.06,4.12-.6,5.02-1,.93-.41.65-.83.38-1.04-.2-.16-1.24-.74-1.75-1.02-.14.09-.24.15-.37.24.86.52,1.2.78,1.4.94.08.06.03.13-.08.14-.03,0-.06,0-.09,0-.82.06-2.36.17-3.08.2-.11,0-.23.01-.29.01.18-.17.38-.32.48-.39,1.55-1.09,4.14-2.62,4.9-3.28.56-.49,2.09-1.97-1.2-3.12"/>
</svg>