<?xml version="1.0" encoding="UTF-8"?>
<svg id="Layer_3" data-name="Layer 3" xmlns="http://www.w3.org/2000/svg" viewBox="0 0 92 44">
  <path d="m54.08,23.97c0-1.12-.6-1.66-2.28-2.02-.93-.19-1.16-.41-1.16-.71,0-.37.32-.54.95-.54.75,0,1.48.22,2.17.54v-1.48c-.47-.26-1.25-.43-2.13-.43-1.66,0-2.52.71-2.52,1.92,0,.95.43,1.7,2.15,2.02,1.03.22,1.25.39,1.25.71s-.22.54-.95.54c-.84,0-1.85-.28-2.5-.67v1.55c.52.26,1.2.54,2.47.54,1.83.04,2.54-.75,2.54-1.96Z"/>
  <path d="m72.26,19.43v6.43h1.38v-4.91l.58,1.31,1.94,3.59h1.72v-6.43h-1.38v4.15l-.52-1.2-1.57-2.95h-2.15Z"/>
  <path d="m63.55,19.43h-1.51v6.43h1.51v-6.43Z"/>
  <path d="m60.32,23.97c0-1.12-.6-1.66-2.28-2.02-.93-.19-1.16-.41-1.16-.71,0-.37.32-.54.95-.54.75,0,1.48.22,2.17.54v-1.48c-.49-.26-1.25-.43-2.13-.43-1.66,0-2.52.71-2.52,1.92,0,.95.43,1.7,2.15,2.02,1.03.22,1.25.39,1.25.71s-.22.54-.95.54c-.84,0-1.85-.28-2.5-.67v1.55c.52.26,1.2.54,2.47.54,1.83.04,2.54-.75,2.54-1.96Z"/>
  <path d="m37.49,19.43v6.43h3.08l.49-1.4h-2.07v-5.04h-1.51Z"/>
  <path d="m31.42,19.43v1.4h1.66v5.04h1.51v-5.04h1.79v-1.4h-4.95Z"/>
  <path d="m29.23,19.43h-1.98l-2.24,6.43h1.72l.32-1.08c.39.11.77.17,1.2.17s.82-.06,1.2-.17l.32,1.08h1.72l-2.28-6.43Zm-.99,4.2c-.28,0-.56-.04-.82-.11l.82-2.82.82,2.82c-.26.06-.54.11-.82.11Z"/>
  <path d="m45.86,19.43h-1.98l-2.24,6.43h1.72l.32-1.08c.39.11.77.17,1.2.17s.82-.06,1.2-.17l.32,1.08h1.72l-2.28-6.43Zm-.97,4.2c-.28,0-.56-.04-.82-.11l.82-2.82.82,2.82c-.26.06-.54.11-.82.11Z"/>
  <path d="m68.93,19.43h-1.98l-2.24,6.43h1.72l.32-1.08c.39.11.77.17,1.2.17s.82-.06,1.2-.17l.32,1.08h1.72l-2.28-6.43Zm-.99,4.2c-.28,0-.56-.04-.82-.11l.82-2.82.82,2.82c-.24.06-.52.11-.82.11Z"/>
  <path d="m16.36,21.71s-.11-.06-.17-.06c-.04.02-.09.04-.11.09l-1.94,3.89c-.04.09-.02.19.06.22.02.02.04.02.06.02h2.71c.06,0,.13-.04.15-.09.58-1.18.24-3.01-.77-4.07Z"/>
  <path d="m21.93,25.62c-.04-.06-3.66-7.29-3.74-7.47-.02-.06-.06-.09-.13-.09h-.02c-.06,0-.11.04-.15.09-.99,1.55-1.08,3.42-.3,5.01l1.31,2.6c.02.06.09.09.15.09h2.71c.09,0,.17-.06.17-.17v-.06Z"/>
</svg>