<?xml version="1.0" encoding="UTF-8"?>
<svg id="Layer_4" data-name="Layer 4" xmlns="http://www.w3.org/2000/svg" viewBox="0 0 92 44">
  <defs>
    <style>
      .cls-1 {
        fill: #fff;
      }

      .cls-1, .cls-2, .cls-3 {
        fill-rule: evenodd;
      }

      .cls-2 {
        fill: #041e38;
      }
    </style>
  </defs>
  <path class="cls-3" d="m34.97,11.68v20.65h22.05V11.68h-22.05Zm16.08,19.29c-.07-.48-.13-.7-.22-.97l-.69-2.22h-3.09l-.55.73.5,1.5c.1.32.2.56.39.96h-1.76l-.29-.96-.7.96h-1.41l-.3-.95-.74.95h-1.41s.06-.06.09-.08c.36-.32.58-.6.78-.86l.9-1.18-.35-1.07h-3.08l-2.41,3.2h-1.5c.57-.49.72-.65.93-.93l4.56-6.03c.06-.08.12-.17.17-.26.08-.14.16-.3.2-.5h1.48c0,.33.05.51.12.77l1.04,3.26.53-.7-.85-2.59c-.06-.19-.14-.43-.3-.73h1.8c.05.29.1.52.18.77l.33,1.02.77-1.03c.18-.24.41-.5.52-.77h1.57c-.31.24-.5.5-.69.75l-1.74,2.31.3.95,2.49-3.26c.06-.1.13-.18.2-.27.09-.14.17-.29.22-.49h1.47c.02.26.06.49.13.72l1.89,6.02c.09.32.15.52.39.97h-1.85,0Z"/>
  <path class="cls-2" d="m39.8,26.82h2.11l-.64-1.94-1.47,1.94h0Zm4.28,1.64l.34,1.07.54-.71-.37-1.05-.5.69Zm3.71-1.64h2.04l-.64-1.94-1.4,1.94h0Z"/>
  <path class="cls-1" d="m47.04,22.86h1.29l8.44-11.18h-1.29l-8.44,11.18h0Z"/>
</svg>