<?xml version="1.0" encoding="UTF-8"?>
<svg id="Layer_5" data-name="Layer 5" xmlns="http://www.w3.org/2000/svg" viewBox="0 0 92 44">
  <g id="layer1">
    <path id="path360" d="m25.2,24.7c0-1.37-1.41-2.19-2.4-2.38v-.02c.92-.18,2.03-.84,2.03-2.13,0-1.41-1.31-2.44-3.95-2.44-1.33,0-2.44.21-3.13.53v8.63c.74.33,1.86.53,3.24.53,2.5-.02,4.2-.84,4.2-2.72m-2.3-4.45c0,1.13-.64,1.72-2.6,1.68l-.63-.02v-3.05c.37-.12.72-.16,1.21-.16,1.33-.02,2.01.51,2.01,1.54m.27,4.41c0,1.21-.92,1.68-2.23,1.68-.55,0-.92-.06-1.27-.18v-3.38l.63-.02c2.07-.04,2.87.61,2.87,1.89m4.9-3.46v5.18c-.02.51-.43.92-.94.92h-.98v-6.86c.82-.43,2.85-.84,4.22-.64v1.43c-.84-.35-1.84-.23-2.3-.02m21.12,6.09h-.92c-.51,0-.94-.41-.94-.94v-4.4c0-.64-.39-1.23-1.39-1.23-.57,0-.98.16-1.37.51v6.04h-1.86v-5.37c0-.72-.53-1.19-1.52-1.19-.55,0-.84.08-1.21.21v6.35h-1.86v-7.09c.82-.35,1.7-.55,3.07-.55s2.07.35,2.54.82c.55-.47,1.39-.82,2.62-.82,1.93,0,2.81,1.11,2.81,2.3v5.35h.02Zm17.29-4.4c0-1.5-.63-2.11-1.68-2.11s-1.76.66-1.86,2.11h3.54Zm1.8.66v.25h-5.37c.21,1.8,1.05,2.48,2.48,2.48.68,0,1.23-.1,1.66-.23h.02c.1-.02.51-.12.68.27l.27.61c-.61.29-1.52.53-2.83.53-2.44,0-3.98-1.37-3.98-3.85s1.41-3.81,3.65-3.81c2.27-.04,3.52,1.27,3.42,3.75m5.98,1.62c0-.86-.37-1.6-2.05-2.19-.74-.25-1.27-.57-1.27-1.17,0-.53.43-.98,1.23-.98.61,0,1.11.23,1.37.41l.47-.98c-.55-.31-1.27-.53-2.23-.53-1.64,0-2.72.96-2.72,2.15,0,.76.33,1.54,1.95,2.07.88.29,1.25.59,1.25,1.21s-.53,1.04-1.33,1.04c-.7,0-1.29-.21-1.6-.43l-.51,1.07c.51.29,1.37.53,2.36.53,1.88.04,3.07-1.02,3.07-2.21m-13.99,2.11h-1c-.51,0-.94-.41-.94-.94v-9.83h1.93v10.76h0Zm-2.81-3.87c0-2.21-1.39-3.61-3.38-3.61-.82,0-1.27.14-1.68.29v-3.57h-1.91v10.37c.55.31,1.5.53,2.83.53,2.68,0,4.14-1.52,4.14-4m-1.91.1c0,1.76-.63,2.89-2.15,2.89-.37,0-.72-.06-.98-.16v-5.25c.31-.16.64-.21,1.17-.21,1.45,0,1.95,1.21,1.95,2.73m-18.64,3.38c-.68.31-1.76.53-3.11.53-2.34,0-3.5-.82-3.5-2.25,0-1.95,2.19-2.52,4.79-2.73v-.39c0-.96-.7-1.23-1.7-1.23-.8,0-1.56.21-2.09.43v-1.13c.59-.2,1.43-.37,2.44-.37,1.76,0,3.16.64,3.16,2.56v4.59h0Zm-1.82-.61v-3.05c-1.84.2-2.95.53-2.95,1.88,0,.96.66,1.37,1.8,1.37.43.02.86-.08,1.15-.2"/>
  </g>
</svg>