<?xml version="1.0" encoding="UTF-8"?>
<svg id="Layer_6" data-name="Layer 6" xmlns="http://www.w3.org/2000/svg" viewBox="0 0 92 44">
  <defs>
    <style>
      .cls-1 {
        fill-rule: evenodd;
      }
    </style>
  </defs>
  <path class="cls-1" d="m29.61,24.11c0,1.16-.91,2.07-2.07,2.07s-2.02-.91-2.02-2.07.91-2.02,2.02-2.02h2.07v2.02Zm25.22,2.07c1.16,0,2.07-.91,2.07-2.07s-.91-2.02-2.07-2.02-2.02.91-2.02,2.02.91,2.07,2.02,2.07Zm-22.96-10.59h-2.26v4.23h-2.07c-2.36,0-4.28,1.92-4.28,4.28s1.93,4.33,4.28,4.33c2.38,0,4.32-1.91,4.33-4.3v-.04c0-1.16.05-4.28.05-4.28l-.05-4.23h0Zm18.68,8.52c0-2.36,1.92-4.28,4.33-4.28s4.28,1.92,4.28,4.28-1.93,4.33-4.28,4.33c-2.38,0-4.32-1.91-4.33-4.3v-.04Zm15.88,0c0-1.11-.91-2.02-2.02-2.02s-2.07.91-2.07,2.02v4.14c-1.16.05-2.26.05-2.26.05v-4.19c0-2.36,1.93-4.28,4.33-4.28s4.33,1.92,4.33,4.28v4.14h-2.31v-4.14h0Zm-21.22-1.49c-.29-.19-.19-.63.34-.77.72-.19,1.88,0,2.89.43l1.11-1.44c-.48-.38-1.49-.91-2.98-1.01,0,0-2.45-.29-3.47,1.59,0,0-.91,1.78.87,2.84,1.06.67,2.89.91,3.47,1.25.48.24.34.77-.38.91-1.16.29-2.74-.38-3.27-.77l-1.11,1.49c.72.53,1.69,1.01,3.18,1.3,0,0,2.31.38,3.61-1.2.24-.34,1.3-2.31-.82-3.42-1.06-.58-2.84-.82-3.42-1.2h0Zm-10.59,7.32c.1.1,1.16.82,2.17.82,2.5.05,2.65-2.5,2.65-3.13-.48.53-1.44.82-2.02.82-2.41,0-4.33-1.88-4.33-4.23v-4.24h2.26s.05,3.71.05,4.24c0,1.11.91,2.02,2.02,2.02s2.02-.91,2.02-2.02v-4.24h2.31v4.24c0,3.71.15,7.56-3.47,8.42-2.74.67-4.67-1.06-4.76-1.16,0,0,1.11-1.54,1.11-1.54Z"/>
</svg>