<?xml version="1.0" encoding="UTF-8"?>
<svg id="Layer_7" data-name="Layer 7" xmlns="http://www.w3.org/2000/svg" viewBox="0 0 92 44">
  <path d="m28.56,13.46s.07.07.12.07c.49.05.95.15,1.41.32.92.37,1.43,1.09,1.7,2.01.1.34.07.7.09,1.04,0,.22-.1.44-.2.65-.17.36-.34.73-.56,1.06-.41.65-1.02,1.06-1.77,1.19-.43.09-.89.14-1.31,0-.39-.12-.8-.26-1.02-.66-.12-.24-.05-.46.03-.66.09-.22.2-.43.27-.63.05-.15.05-.32.03-.48-.02-.17-.1-.34-.15-.49-.12-.31-.34-.44-.66-.46-.31-.02-.61.03-.89.17-.31.17-.53.44-.66.75-.12.29-.24.56-.32.87-.05.22,0,.46-.07.68-.09.37-.1.73-.1,1.11s.09.73.12,1.09c.09.65.34,1.24.6,1.84.19.46.43.9.73,1.31.37.46.8.82,1.4.97.36.09.72.14,1.07,0,.34-.14.65-.61.55-.95-.05-.19-.19-.31-.37-.36-.36-.12-.73-.1-1.07-.03-.46.09-.83-.05-1.14-.37-.32-.32-.56-.7-.51-1.18.05-.49.17-1.02.65-1.29.34-.2.73-.34,1.11-.43.39-.09.82-.09,1.23-.09.63.02,1.24.12,1.79.51.34.26.61.56.82.92.39.66.7,1.36.95,2.08.39,1.16.85,2.28,1.57,3.29.29.41.63.8.97,1.19.46.51.97.95,1.57,1.31.55.32,1.11.58,1.75.63.09,0,.15.02.24.05.02,0,.03.07.05.1h-1.35s-.02-.03-.02-.03c-.39-.12-.82-.2-1.19-.36-.48-.19-.94-.39-1.38-.65-.36-.2-.68-.48-1.02-.72-.44-.31-.77-.75-1.11-1.16-.15-.19-.31-.41-.44-.61-.19-.27-.36-.56-.56-.83-.07-.12-.17-.2-.27-.34-.03.29-.05.51-.09.75v.07c0,.14,0,.27-.02.41-.03.19-.09.37-.14.56-.14.58-.36,1.07-.83,1.46-.22.19-.48.26-.77.27-.48.05-.9-.15-1.33-.32-.36-.15-.66-.39-.97-.63-.32-.26-.63-.56-.9-.87-.39-.44-.78-.89-1.11-1.38-.43-.65-.78-1.35-1.16-2.03-.15-.27-.31-.56-.44-.85-.15-.37-.31-.75-.43-1.14-.2-.61-.37-1.24-.44-1.89-.02-.15-.05-.31-.07-.46v-1.31c.03-.22.09-.44.12-.68.07-.49.22-.95.43-1.4.24-.55.56-1.04.97-1.46.56-.56,1.21-.99,1.98-1.21.41-.12.82-.19,1.24-.27.03-.02.07-.05.1-.07.41.03.8.03,1.21.03Z"/>
  <path d="m69.4,24.56c-.15.09-.31.17-.48.24-.2.09-.39.19-.61.2-.34.05-.65-.07-.97-.17-.73-.26-1.24-.78-1.69-1.36-.26-.32-.39-.75-.6-1.12-.14-.26-.24-.53-.49-.66-.2-.12-.48-.1-.56.29-.03.14-.1.29.02.43.02.02,0,.03,0,.05-.09.37.03.73.19,1.07.14.29.32.58.53.83.19.24.41.44.61.65.31.31.68.44,1.09.53.1.02.2.05.31.09-.02.02-.02.07-.03.07-.53.2-1.06.32-1.62.02-.48-.26-.89-.55-1.24-.94-.39-.43-.72-.9-.97-1.43-.19-.39-.34-.8-.43-1.23-.03-.17-.07-.36-.07-.53,0-.61-.09-1.23-.31-1.81-.15-.39-.37-.73-.58-1.11-.36-.63-.51-1.58.09-2.23.29-.32.61-.53,1-.66.27-.1.55-.15.83-.14.12.02.24-.03.36-.03.61-.02,1.14.15,1.62.56.37.32.61.72.72,1.21.05.26.15.49.17.75.02.19-.05.39-.1.56-.1.31-.24.6-.36.89.07.02.15.02.26.05.39.15.61.46.68.89.03.19.1.37.07.53-.1.32-.05.63-.05.94,0,.61.2,1.16.61,1.64.34.41.75.7,1.28.82.2.05.41.12.63.03.05-.02.12,0,.19.02-.09.03-.09.07-.09.09Zm-5.3-6.06s.05-.02.07-.03c.03-.14.05-.29-.07-.41-.03-.03-.12-.07-.15-.05-.03.02-.07.12-.05.15.07.12.14.22.2.34Z"/>
  <path d="m48.01,28.16c-.36.02-.7-.02-1.02-.17-.1-.05-.24-.07-.36-.1-.29-.1-.6-.17-.87-.31-.31-.15-.6-.32-.85-.55-.43-.37-.82-.78-1.06-1.29-.1-.2-.19-.39-.27-.6-.19-.39-.36-.78-.56-1.14-.29-.49-.58-1-.92-1.45-.43-.56-.92-1.07-1.6-1.4.02.19.02.34.03.51.02.15.07.31.09.46.02.12.02.24.03.36.02.14.02.27.03.41.03.22.07.43.1.65.03.2.07.41.12.61.1.39.2.8.34,1.19.34,1.02.83,1.98,1.67,2.71.32.29.66.53,1.11.58v.05c-.2,0-.41.02-.61,0-.26-.02-.51-.03-.75-.12-.26-.09-.51-.2-.73-.36-.37-.24-.75-.49-1.09-.8-.26-.22-.44-.51-.63-.78-.24-.36-.37-.73-.55-1.12-.31-.77-.49-1.55-.63-2.37-.14-.8-.32-1.6-.61-2.37-.15-.41-.36-.8-.53-1.23-.27-.68-.66-1.35-.72-2.09-.02-.37-.03-.75,0-1.11.03-.31.15-.6.51-.72.22-.07.41-.02.58.07.39.2.63.55.85.9.6.97,1.35,1.79,2.18,2.57.29.27.6.53.94.82-.02-.37.07-.73-.12-1.06-.12-.22-.22-.46-.37-.66-.17-.26-.37-.48-.6-.7-.27-.27-.44-.6-.55-.95-.07-.29-.02-.56.1-.83.09-.17.2-.34.34-.46.31-.27.68-.26,1.07-.15.94.26,1.45.92,1.75,1.77.1.29.15.61.19.92.02.15-.05.32-.07.48-.02.24-.02.48-.05.72-.02.14-.07.27-.1.41v.85c0,.24-.03.48-.03.72.02.29.07.58.1.87.05.34.07.7.17,1.02.17.55.36,1.09.58,1.62.32.75.85,1.4,1.35,2.03.51.65,1.16,1.09,1.89,1.45.03.02.07.03.1.07.03.07.02.09.02.09Z"/>
  <path d="m32.15,19.11c.05-.82.09-1.62.27-2.4.14-.55.48-.94.89-1.29.24-.2.49-.34.78-.46s.58-.1.85-.02c.46.14.9.32,1.19.72.22.31.37.66.55,1.02.1.24.2.49.26.75.03.15,0,.32,0,.49.02.37-.07.72-.26,1.02-.17.26-.6.44-.9.29-.03-.02-.07-.03-.1-.03-.19-.05-.29-.22-.27-.41.02-.39.05-.77-.27-1.09-.19-.17-.41-.2-.61-.17-.12.02-.24.19-.29.31-.1.26-.1.51-.05.8.07.37.2.68.46.94.15.15.34.22.55.22.22,0,.46.02.68.02.24-.02.46.07.63.22.49.39.82.9.9,1.55.02.15.1.29.1.44,0,.17-.03.34-.09.51-.03.12-.09.26-.19.32-.46.44-.97.27-1.21-.31-.09-.22-.15-.44-.26-.65-.05-.09-.17-.19-.26-.19-.1,0-.24.1-.27.2-.1.22-.17.48-.24.72-.02.1.03.22.03.32,0,.17-.03.34-.03.49.02.53.14,1.02.48,1.46.31.39.58.8.99,1.07.09.05.2.1.31.09.24-.03.31-.24.19-.49-.07-.19-.24-.22-.37-.27-.32-.12-.46-.37-.56-.66-.12-.32.07-.75.36-.95.61-.48,1.23-.26,1.77.14.61.46.92,1.12,1.06,1.87.03.15.09.31.1.48s-.03.32-.03.49c.02.34-.05.65-.24.92-.12.19-.29.34-.46.48s-.36.27-.55.32c-.19.05-.41.05-.61.02-.65-.14-1.23-.44-1.7-.9-.37-.37-.73-.77-1.09-1.16-.39-.44-.65-.95-.89-1.5-.22-.51-.48-1-.7-1.52-.14-.31-.24-.63-.32-.94-.14-.51-.26-1.02-.36-1.53-.07-.32-.1-.65-.14-.99-.05-.31-.05-.55-.07-.77Z"/>
  <path d="m53.61,27.37c-.29.09-1.7-.36-2.01-.61-.56-.44-1.11-.9-1.69-1.36-.02.09-.05.17-.05.26,0,.36-.09.7-.27,1-.15.27-.44.39-.72.53-.2.09-.41.17-.63.09-.19-.07-.37-.15-.55-.22-.19-.09-.39-.14-.56-.24-.17-.09-.34-.2-.49-.34-.39-.32-.68-.7-.94-1.12-.43-.68-.7-1.4-.94-2.15-.2-.61-.34-1.24-.34-1.89,0-.51-.07-1-.03-1.52.05-.72.19-1.41.36-2.11.17-.66.55-1.14,1.02-1.58.27-.24.61-.34.97-.36.6-.02,1.18.07,1.74.31.49.2.83.58,1.02,1.06.1.27.2.56.26.85.03.17-.05.34-.05.51-.02.29-.15.55-.29.8-.27.46-.7.66-1.18.78-.32.09-.6-.05-.89-.17-.17-.07-.22-.36-.14-.51.12-.19.2-.37.19-.61-.02-.17-.15-.36-.32-.32-.22.02-.46.03-.63.19-.22.2-.34.44-.34.75,0,.17-.07.36-.05.53.07.73.15,1.45.63,2.06.31.37.61.73,1.07.95.48.24,1.06-.03,1.23-.56.07-.24-.14-.43-.43-.36-.15.03-.29.09-.44.1-.39.07-.72-.22-.78-.65-.07-.41.03-.78.43-.99.2-.12.44-.2.66-.22.26-.03.51.02.78.05.32.03.53.24.66.53.14.31.27.6.37.92.05.15.02.34.03.51.02.19.05.37.09.55s.05.34.09.51c.02.12.03.26.07.37.2.75.48,1.48.99,2.09.49.58,1.06,1.09,1.75,1.43.09.09.2.12.34.17Z"/>
  <path d="m56.87,27.14c-.09.02-.14.05-.19.05-.31,0-.61,0-.9-.03-.44-.07-.9-.15-1.33-.26-.56-.14-1.06-.43-1.52-.8-.2-.17-.43-.32-.61-.49-.46-.44-.78-.95-1.04-1.53-.19-.44-.39-.87-.56-1.31-.09-.22-.12-.48-.15-.73-.07-.39-.12-.78-.17-1.18-.03-.26-.09-.51-.1-.77-.02-.49-.05-.99-.03-1.5.02-.58.15-1.12.43-1.64.24-.46.65-.78,1.16-.87.58-.09,1.14,0,1.62.44.65.61,1.09,1.35,1.35,2.2.29.94.66,1.84.92,2.78.29,1.02.73,1.96,1.26,2.86.32.56.75,1.02,1.31,1.38.2.12.36.29.56.43.15.1.31.19.49.29-.12,0-.26.03-.37.02-.37-.05-.75-.09-1.11-.17-.49-.12-.92-.39-1.29-.7-.41-.32-.8-.66-1.16-1.04-.34-.37-.63-.8-.92-1.23-.26-.37-.46-.77-.72-1.16-.17-.27-.44-.34-.68-.15-.14.1-.24.26-.24.46,0,.1-.05.2-.05.29.02.37.05.73.15,1.09.2.73.58,1.35,1.07,1.92.46.55,1.04.92,1.72,1.12.36.09.72.14,1.11.22Zm-4.21-7.78c.17-.17.1-.6-.1-.7-.09-.03-.15,0-.15.1.02.22.09.43.26.6Z"/>
  <path d="m64.63,26.03c-.1,0-.22.02-.32,0-.27-.03-.56-.07-.83-.14-.24-.05-.49-.1-.72-.2-.26-.14-.53-.29-.73-.49-.36-.36-.72-.73-1.02-1.14-.19-.26-.31-.6-.41-.9-.1-.36-.24-.72-.53-.97-.09-.07-.32-.07-.46.05-.14.14-.27.29-.36.48-.07.14-.09.31-.09.46s.05.32.07.48c0,.43.22.77.46,1.09.48.61,1.07,1.09,1.77,1.43.17.09.36.12.53.17v.05c-.14.02-.27.07-.41.07-.32.02-.66.05-.99.02-.22-.03-.44-.2-.66-.32-.22-.12-.44-.2-.65-.34-.31-.22-.61-.48-.9-.75-.22-.2-.43-.43-.61-.68-.29-.37-.56-.77-.8-1.16-.55-.89-.95-1.84-1.24-2.84-.14-.48-.24-.97-.37-1.45-.12-.41-.26-.82-.24-1.26.02-.32.1-.65.31-.89.2-.24.51-.34.83-.31.27.03.53.12.73.32.14.14.29.29.34.46.19.55.34,1.09.49,1.64.12.43.26.83.53,1.18.36.44.97.55,1.4.1.2-.22.2-.53.17-.82-.05-.39-.37-.55-.63-.73-.34-.24-.7-.46-1.02-.72-.29-.22-.32-.87-.14-1.16.51-.82,1.82-.9,2.38.05.1.17.14.37.15.6.03.43.12.85.36,1.24.26.43.44.87.65,1.31.12.24.14.51.15.78.02.29.07.56.1.85v.05c-.1.53.12.99.31,1.45.22.53.44,1.04.77,1.5.34.49.8.89,1.28,1.24.09.07.22.09.34.12.02.05.02.07.02.09Z"/>
  <path d="m54.11,27.42c.27-.03.55-.14.85-.05.14.03.19.1.15.22-.03.12-.12.19-.24.17-.17-.03-.34-.09-.51-.15-.09-.03-.17-.09-.27-.12.02-.03.02-.05.02-.07Z"/>
  <path d="m49.22,28.34c-.37.09-.72,0-1.02-.19v-.07h.82c.17,0,.2.05.2.26Z"/>
</svg>