<?xml version="1.0" encoding="UTF-8"?>
<svg id="Layer_8" data-name="Layer 8" xmlns="http://www.w3.org/2000/svg" viewBox="0 0 92 44">
  <path d="m42.19,23.43c0,2.52-1.97,4.36-4.36,4.36s-4.38-1.85-4.38-4.36,1.97-4.36,4.38-4.36c2.4.02,4.36,1.85,4.36,4.36Zm-1.93,0c0-1.57-1.14-2.63-2.46-2.63s-2.46,1.08-2.46,2.63,1.14,2.63,2.46,2.63,2.46-1.08,2.46-2.63Z"/>
  <path d="m51.62,23.43c0,2.52-1.97,4.36-4.36,4.36s-4.36-1.85-4.36-4.36,1.97-4.36,4.36-4.36,4.36,1.85,4.36,4.36Zm-1.93,0c0-1.57-1.14-2.63-2.46-2.63s-2.46,1.08-2.46,2.63,1.14,2.63,2.46,2.63,2.46-1.08,2.46-2.63Z"/>
  <path d="m60.67,19.34v7.82c0,3.22-1.91,4.54-4.15,4.54-2.12,0-3.38-1.42-3.87-2.58l1.67-.69c.29.71,1.02,1.55,2.2,1.55,1.44,0,2.32-.88,2.32-2.56v-.63h-.06c-.43.53-1.26.98-2.3.98-2.18,0-4.17-1.91-4.17-4.34s2.01-4.38,4.17-4.38c1.04,0,1.87.47,2.3.98h.06v-.71h1.83Zm-1.69,4.11c0-1.53-1.02-2.65-2.32-2.65s-2.44,1.12-2.44,2.65,1.1,2.63,2.44,2.63,2.32-1.12,2.32-2.63Z"/>
  <path d="m63.65,14.74v12.78h-1.87v-12.78h1.87Z"/>
  <path d="m70.93,24.87l1.49.98c-.47.71-1.63,1.93-3.64,1.93-2.48,0-4.32-1.91-4.32-4.36,0-2.59,1.87-4.36,4.11-4.36s3.36,1.81,3.74,2.77l.2.49-5.82,2.44c.45.88,1.14,1.32,2.12,1.32.96.02,1.63-.47,2.12-1.2h0Zm-4.56-1.55l3.89-1.61c-.22-.55-.86-.92-1.61-.92-.98-.02-2.34.85-2.28,2.54Z"/>
  <path d="m26.36,22.31v-1.85h6.23c.06.31.1.71.1,1.12,0,1.4-.37,3.11-1.61,4.32-1.18,1.24-2.71,1.91-4.72,1.91-3.74,0-6.86-3.05-6.86-6.76s3.15-6.76,6.86-6.76c2.06,0,3.54.81,4.64,1.87l-1.3,1.3c-.79-.75-1.87-1.32-3.34-1.32-2.73,0-4.86,2.2-4.86,4.91s2.12,4.91,4.86,4.91c1.77,0,2.77-.71,3.42-1.36.53-.53.86-1.28,1-2.3h-4.42Z"/>
</svg>