<?xml version="1.0" encoding="UTF-8"?>
<svg id="Layer_9" data-name="Layer 9" xmlns="http://www.w3.org/2000/svg" viewBox="0 0 92 44">
  <defs>
    <style>
      .cls-1 {
        fill: #fff;
      }
    </style>
  </defs>
  <path id="SHAPE" d="m49.04,11.15c-5.01,0-15.79,1.06-15.79,9.1,0,5.47,5.47,12.59,11.53,12.59,1.96,0,3.64-.7,5.2-1.85,3.74-2.78,8.49-9.02,8.49-13.87,0-3.63-2.56-5.98-9.43-5.98h0Z"/>
  <path id="GSK_TEXT" data-name="GSK TEXT" class="cls-1" d="m55,24.35c-.38,0-.9-.1-1.72-.99-1.07-1.18-2.31-2.69-2.31-2.69l1.9-1.78c1.11-1.05,1.43-1.11,1.52-1.13h-1.76c-.36.47-.76.82-.76.82l-2.03,1.9v-5.97l-1.54.4c.2.27.27.71.27,1.72v6.17c0,1.25-.07,1.38-.2,1.74h1.65c-.11-.29-.18-.49-.18-1.74v-1.78s.91,1.09,2.05,2.45c.71.84,1.29,1.23,1.98,1.23.53,0,1.03-.13,1.36-.38-.07.02-.16.04-.22.04h0Zm-9.12-3.61c-.89-.45-1.74-.85-1.74-1.56,0-.6.65-.87,1.32-.87s1.34.24,1.87.67v-1c-.56-.31-1.2-.47-1.85-.47-1.2,0-2.54.6-2.54,1.98,0,1.14,1,1.63,1.94,2.07.85.4,1.63.76,1.63,1.49s-.78.89-1.4.89c-.58,0-1.49-.24-2.23-.64v1.02c.71.29,1.4.45,2.18.45,1.25,0,2.74-.51,2.74-2.01,0-1.02-.98-1.56-1.92-2.03h0Zm-4.19,3.29c-.64-.29-1.59-.32-3.15-.44-.73-.06-.87-.27-.87-.56,0-.17.09-.37.28-.52.13-.11.29-.18.47-.22.19.02.35.03.5.03,1.74,0,2.72-1.05,2.72-2.3,0-.54-.2-1.09-.56-1.49.38,0,1.09.04,1.32.09v-.89c-.4.11-.89.13-1.32.13-.36,0-.69-.07-1-.16-.38-.11-.82-.2-1.2-.2-1.75,0-2.82,1.07-2.82,2.46,0,.95.62,1.8,1.51,2.13-.67.31-1.03.76-1.03,1.27s.35,1.02,1.05,1.21c-1,.44-1.94,1.23-1.24,2.15,1.03,1.35,4.64,1.21,5.77-.2.88-1.1.28-2.18-.41-2.5h0Zm-4.42-4.25c0-.91.56-1.54,1.5-1.54,1.07,0,1.64.8,1.64,1.8,0,.91-.5,1.57-1.45,1.57-1.09,0-1.69-.8-1.69-1.83h0Zm2.64,7.06c-2.05.22-3.64-1.14-1.75-2.18.43.03.77.08,1.47.11,1.37.05,1.81.37,1.91.75.16.57-.32,1.19-1.64,1.33h0Z"/>
</svg>