<?xml version="1.0" encoding="UTF-8"?>
<svg id="Layer_26" data-name="Layer 26" xmlns="http://www.w3.org/2000/svg" viewBox="0 0 92 44">
  <defs>
    <style>
      .cls-1 {
        fill: #fff;
      }

      .cls-1, .cls-2 {
        fill-rule: evenodd;
      }
    </style>
  </defs>
  <path class="cls-2" d="m20.72,30.99V13.01h50.55v17.98H20.72Z"/>
  <path class="cls-1" d="m46.09,30.24c6.74,0,13.57-.78,19.86-3.37,2.01-.83,4.68-2.41,4.68-4.87s-2.68-4.04-4.68-4.87c-6.29-2.6-13.11-3.37-19.86-3.37s-13.65.72-19.88,3.37c-1.87.78-4.82,2.54-4.82,4.87s2.94,4.09,4.79,4.87c6.26,2.65,13.17,3.37,19.91,3.37h0Z"/>
  <path class="cls-2" d="m53.21,22.86c-.13-.08-.27-.13-.43-.13h-2.35v.37h3.1c.16,0,.29-.05.43-.13v2.35h-7.84c.13-.11.27-.27.27-.43v-5.97c0-.19-.13-.32-.27-.43h7.84v2.11c-.13-.08-.27-.13-.43-.13h-3.1v.45h2.35c.16,0,.29-.05.43-.13v2.06h0Zm7.47,1.07h-1.74l-.35,1.02s-.03.08-.03.11c0,.08.03.16.08.24h-3.99c.08-.08.16-.19.19-.29l2.14-5.75c.05-.13.11-.29.11-.43s-.05-.24-.11-.35h6.45c-.05.11-.11.21-.11.35,0,.16.05.29.11.43l2.35,5.75c.05.13.11.21.21.29h-4.98c.03-.08.05-.16.05-.27,0-.05,0-.11-.03-.13l-.37-.96h0Zm-21.89-1.12v2.06c0,.19.11.32.27.43h-4.74c.13-.11.27-.27.27-.43v-5.94c0-.19-.13-.32-.27-.45h4.74c-.13.11-.27.27-.27.45v2.06l1.36-2.06c.03-.05.08-.13.08-.21s-.03-.16-.08-.24h4.66c-.19.11-.37.27-.51.45l-1.63,2.38,2.25,3.56c.11.19.29.32.48.43h-5.43c.03-.05.08-.11.08-.19s-.05-.19-.08-.27l-1.18-2.03h0Zm-11-4.34h4.84c-.13.11-.27.24-.27.43v5.97c0,.19.11.32.27.43h-4.84c.13-.11.24-.27.24-.43v-5.94c.03-.21-.11-.35-.24-.45h0Z"/>
  <path class="cls-1" d="m59.39,22.56h.78l-.4-1.1-.37,1.1Z"/>
</svg>