<?xml version="1.0" encoding="UTF-8"?>
<svg id="Layer_10" data-name="Layer 10" xmlns="http://www.w3.org/2000/svg" viewBox="0 0 92 44">
  <path d="m53.78,27.41h-1.2c-.25,0-.43-.13-.46-.38l-.03-.46c-.87.69-1.88,1.07-2.98,1.07-2.11,0-2.95-1.32-2.95-3.36v-5.55c0-.33.18-.43.48-.43h1.32c.31,0,.46.1.46.43v5.17c0,1.04.25,1.76,1.4,1.76.71,0,1.6-.38,2.19-.89v-6.03c0-.33.18-.43.46-.43h1.32c.31,0,.46.1.46.43v8.17c.03.38-.1.51-.48.51h0Zm-30.52-8.73c0-.23.1-.38.33-.38h1.58c.23,0,.36.13.36.38v8.27c0,.33-.15.46-.46.46h-1.32c-.33,0-.48-.13-.48-.46v-8.27Zm33.37,0c0-.23.1-.38.33-.38h1.58c.23,0,.36.13.36.38v8.27c0,.33-.15.46-.46.46h-1.32c-.33,0-.48-.13-.48-.46v-8.27h0Zm-21.05,8.73h-1.35c-.33,0-.46-.18-.46-.48v-5.12c0-1.04-.28-1.76-1.43-1.76-.74,0-1.63.41-2.21.89v5.98c0,.33-.13.46-.46.46h-1.37c-.28,0-.46-.15-.46-.46v-8.17c0-.31.13-.46.46-.46h1.22c.25,0,.43.08.46.36l.03.51c.87-.69,1.96-1.09,3.03-1.09,2.11,0,2.95,1.32,2.95,3.36v5.5c.05.31-.05.48-.41.48h0Zm6.69-11.68c0-.76-.61-1.37-1.37-1.37s-1.37.61-1.37,1.37.61,1.37,1.37,1.37c.76,0,1.37-.61,1.37-1.37Zm1.96,2.57c.23,0,.36.08.36.33v1.32c0,.23-.15.36-.38.36h-2.16v6.64c0,.33-.15.46-.48.46h-1.3c-.33,0-.48-.13-.48-.46v-6.67h-2.19c-.23,0-.38-.13-.38-.36v-1.32c0-.25.13-.33.36-.33h6.67v.03Zm21.33-2.57c0-.76-.61-1.37-1.37-1.37s-1.37.61-1.37,1.37.61,1.37,1.37,1.37,1.37-.61,1.37-1.37Zm1.96,2.57c.23,0,.36.08.36.33v1.32c0,.23-.15.36-.38.36h-2.16v6.64c0,.33-.15.46-.48.46h-1.3c-.33,0-.48-.13-.48-.46v-6.67h-2.16c-.23,0-.38-.13-.38-.36v-1.32c0-.25.13-.33.36-.33h6.64v.03Zm.61,7.97c.33,0,.61.25.61.61s-.28.61-.61.61-.61-.25-.61-.61c-.03-.36.25-.61.61-.61Zm0,1.12c.28,0,.51-.23.51-.51s-.23-.51-.51-.51-.51.23-.51.51.2.51.51.51Zm-.25-.89h.28c.18,0,.25.08.25.2s-.08.18-.18.2l.2.31h-.13l-.2-.31h-.13v.31h-.1v-.71h0Zm.13.33h.13c.1,0,.18,0,.18-.13,0-.1-.08-.1-.15-.1h-.15v.23h0Z"/>
</svg>