<?xml version="1.0" encoding="UTF-8"?>
<svg id="Layer_11" data-name="Layer 11" xmlns="http://www.w3.org/2000/svg" viewBox="0 0 92 44">
  <g id="layer1">
    <path id="path2996" d="m45.72,31.13c-1.14-.03-2.41-.13-3.52-.28-4.75-.64-8.74-2.27-10.95-4.48-.94-.94-1.54-1.97-1.74-3.01-.07-.34-.08-.5-.08-.87s.02-.53.08-.87c.13-.68.45-1.38.91-2.03,1.05-1.47,2.88-2.78,5.29-3.78,4.02-1.66,9.28-2.31,14.4-1.8,6.01.61,10.96,2.8,12.92,5.73.9,1.34,1.12,2.8.64,4.22-.28.82-.82,1.64-1.57,2.4-2.1,2.1-5.8,3.68-10.24,4.38-1.98.31-4.03.44-6.14.39h0Zm2.62-1.11c2.41-.15,4.44-.5,6.42-1.12,1.57-.49,3.04-1.16,4.16-1.92.57-.38.96-.7,1.4-1.15.53-.53.87-.99,1.15-1.56.31-.64.43-1.13.43-1.79s-.13-1.18-.44-1.81c-.27-.55-.62-1.02-1.13-1.53-.76-.76-1.66-1.39-2.85-1.98-2.23-1.11-5.01-1.84-8.11-2.12-1.72-.16-3.67-.16-5.4,0-4.36.39-8.11,1.69-10.42,3.6-.29.24-.82.77-1.04,1.05-.79.98-1.16,2.05-1.07,3.07.09,1.11.59,2.1,1.57,3.08.74.74,1.62,1.36,2.77,1.94,2.61,1.32,5.81,2.08,9.58,2.26.43.02,2.56,0,2.98-.02h0Zm-12.23-3.16s-.05-.03-.08-.06c-.04-.04-.04-.07-.04-4.07v-4.02s-.05-.05-.05-.05c-.05-.05-.06-.05-.24-.06h-.19v-.51h1.37s1.37,0,1.37,0l.06.05.06.05v1.45c0,1.59,0,1.53.11,1.53.07,0,.1-.03.49-.59,1.05-1.49,1.63-2.3,1.68-2.36.13-.14.07-.13,1.4-.13h1.19s.05.04.05.04c.06.06.08.13.05.19-.02.03-.53.8-2.33,3.46-.2.29-.25.38-.25.43,0,.05.13.24.67,1.01,2.41,3.4,2.42,3.41,2.42,3.48,0,.05,0,.08-.04.12l-.05.05h-1.24c-1.23.01-1.24,0-1.33-.03-.05-.02-.11-.06-.14-.09-.03-.03-.59-.82-1.26-1.75-.67-.94-1.23-1.71-1.24-1.73-.05-.04-.13-.02-.16.03-.02.04-.02.42-.02,1.75v1.7s-.05.05-.05.05l-.05.05h-1.06c-.58,0-1.08,0-1.1,0h0Zm9.44,0s-.07-.05-.08-.08c-.02-.04-.02-.93-.02-4.06v-4l-.05-.05c-.05-.05-.06-.05-.23-.05h-.18v-.53h2.78l.06.05.06.05v8.57l-.05.05-.05.05h-1.09c-.87,0-1.1,0-1.14-.02h0Zm4.04,0c-.06-.03-.08-.08-.08-.14,0-.03.27-.86.59-1.83.33-.97.85-2.53,1.15-3.45.31-.92.63-1.89.72-2.15.09-.26.16-.5.16-.53s-.02-.07-.04-.1c-.03-.04-.06-.05-.22-.05h-.19s0-.27,0-.27v-.26s1.66,0,1.66,0c1.1,0,1.69,0,1.74.02.04.01.08.04.09.06.02.04.21.6,1.09,3.23,1.44,4.28,1.76,5.27,1.76,5.31,0,.07-.04.13-.09.16-.03.01-.37.02-1.09.02-.96,0-1.05,0-1.11-.03-.04-.02-.08-.05-.1-.08s-.16-.45-.32-.95c-1.52-4.73-1.48-4.6-1.51-4.64-.04-.04-.07-.04-.11,0-.03.03-.09.21-.91,2.81-.24.75-.5,1.57-.57,1.8-.08.24-.17.54-.22.68-.08.27-.12.33-.22.37-.08.03-2.14.04-2.2,0h0Z"/>
  </g>
</svg>