<?xml version="1.0" encoding="UTF-8"?>
<svg id="Layer_12" data-name="Layer 12" xmlns="http://www.w3.org/2000/svg" viewBox="0 0 92 44">
  <defs>
    <style>
      .cls-1 {
        fill: #141414;
      }
    </style>
  </defs>
  <path class="cls-1" d="m42.52,21.65v-1.77c-.5,0-1.01,0-1.51,0,0-.64,0-1.28,0-1.92-.67,0-1.34,0-2,0v1.92h-.83v1.77h.83c0,.54,0,1.08,0,1.61h0v.24h0c0,.31,0,.63,0,.94.02.85.32,1.76,1.04,2.25.63.45,1.41.53,2.16.52-.62-.64-.99-1.58-1.13-2.34v-.02s0-.02,0-.02c-.02-.17-.05-.43-.05-.71,0-.06,0-.12-.01-.18,0-.15,0-.31,0-.46,0-.61,0-1.22,0-1.83h1.51"/>
  <path class="cls-1" d="m37.8,18.51c0-.59,0-1.18,0-1.77-.99-.17-2.13-.1-2.92.58-.71.64-.85,1.65-.82,2.56h-.87v1.77h.87v.97h0v4.34h2.03c0-1.47,0-2.94,0-4.41v-.9h1.36v-1.77h-1.37c.02-.4-.03-.87.3-1.17.39-.33.94-.22,1.41-.2"/>
  <path class="cls-1" d="m30.35,25.43c-.52.16-1.14.34-1.61-.03-.43-.31-.37-1.04.09-1.28.48-.25,1.03-.16,1.54-.06.05.45.04.91-.02,1.37m.08,1.53h1.99c-.01-1.52.01-3.03-.01-4.55-.02-.89-.35-1.88-1.2-2.29-1.21-.6-2.63-.47-3.92-.26,0,.64,0,1.29,0,1.93.83-.18,1.74-.37,2.56-.06.38.13.53.54.58.9-.57-.07-1.16-.21-1.74-.09-.69.08-1.37.42-1.76,1.01-.63.94-.45,2.36.48,3.04.87.67,2.14.6,3.02,0,0,.09,0,.28,0,.37"/>
  <path class="cls-1" d="m20.04,17.36c.81,0,1.62,0,2.43,0-1.19,1.6-2.35,3.22-3.54,4.81,1.06,1.59,2.11,3.2,3.18,4.78-.84,0-1.68,0-2.52,0-.94-1.42-1.87-2.85-2.81-4.27,0,1.42,0,2.85,0,4.27-.72,0-1.45,0-2.17,0,0-3.2,0-6.4,0-9.59.72,0,1.45,0,2.17,0,0,1.51,0,3.02,0,4.53,1.08-1.51,2.17-3.02,3.25-4.53"/>
  <path class="cls-1" d="m22.61,19.91c.68,0,1.36,0,2.05,0,0,.45,0,.9-.01,1.35.33-.75,1.05-1.23,1.84-1.36,0,.67,0,1.34,0,2.01-.87.1-1.77.76-1.8,1.7-.02,1.12,0,2.24,0,3.36h-2.07v-7.05"/>
  <path class="cls-1" d="m58.34,20.95c.34.11-.52,1.83-.52,1.83-.34.11-.69.23-.91.23.11-.23.74-2.41,1.43-2.06m.63,4.58c-.29.11-.34.17-.69.29-.34.11-.74.11-1.08,0-1.08-.46-.4-2.12-.4-2.12,4.46-1.09,3.83-3.49,2.63-3.61-.74,0-3.43.11-4.68,3.21-.17.46-1.37,3.72,1.31,3.95.57,0,1.2-.06,1.77-.34.52-.29.91-.63,1.26-1.09.29-.51-.11-.29-.11-.29"/>
  <path class="cls-1" d="m69.36,26.16c-.06-.06-.17-.06-.23-.11-.34-.23-.06-.86,0-1.2l1.03-3.66c.06-.23.46-1.43-1.14-1.2-1.37.23-2.34,1.09-2.34,1.09.11-.34.23-.86,0-.97-.28-.11-1.94.4-2.34.74-.11,0-.29.17-.11.34.17.23.23.4.11.8-.23.69-.92,3.09-1.08,3.55-.17.46-.4,1.32,0,1.6.29.23,1.49-.29,1.66-.4.17-.06.34-.17.4-.23.23-.23-.11-.34.23-1.55,0-.06.4-1.26.69-2.29.23-.86,1.03-1.26,1.31-1.32.46-.06.34.34.29.63-.4,1.26-.86,3.15-1.03,3.61-.17.46-.46,1.37,0,1.55.4.29,2.23-.52,2.4-.63.34-.23.34-.34.17-.34"/>
  <path class="cls-1" d="m62.39,26.16c-.11-.06-.17-.06-.23-.11-.34-.23-.11-.86,0-1.2l1.08-3.66c.06-.4.29-.92,0-1.09-.34-.11-2,.4-2.4.74-.06,0-.23.17-.06.34.17.23.17.4.06.8-.17.69-.97,3.15-1.14,3.61-.17.46-.4,1.37.11,1.55.4.29,2.11-.46,2.34-.63.4-.17.4-.34.23-.34"/>
  <path class="cls-1" d="m62.05,19.23c.11.23,1.14-.23,1.66-.52.06-.06.29-.23.34-.4.11-.4.17-.57.23-.86.06-.11.06-.29-.11-.34-.23-.06-1.6.11-1.94.69-.11.23-.52,1.32-.17,1.43"/>
  <path class="cls-1" d="m77.36,23.24c-.17-.63-1.2-.8-1.6-.46-.23.23-.34.69-.29.8.97-.29,1.14.57.97.92-.34.52-.46.69-.91.69h-3.03c-.06-.06-.11-.11,0-.23.17-.23,3.14-4.29,3.26-4.47.06-.11.23-.4-.17-.4h-3.31c-.34,0-.52.11-.8.4-.23.29-.51,1.15-.68,1.72,0,0,0,.23.34-.06.06-.06.17-.29.34-.29h2c.63,0-2.68,3.15-3.71,4.81-.17.29.11.29.29.29h4.34c1.08,0,.91.17,1.49-.63,0,0,1.77-2.29,1.49-3.09"/>
  <path class="cls-1" d="m53.48,25.18l1.2-4.64c.8-2.81,1.26-2.92,1.54-3.21h-1.89c-.68,0-1.2.97-1.31,1.6l-.8,2.92h-1.71s1.03-3.72,1.14-4.12c.06-.17.06-.4-.29-.4-.06,0-3.65-.11-4.8.29-.52.17-1.26.63-1.49,1.32-.17.4-.4,1.15.11,2.52.06.17.17.29.23.34.17.11,1.66-.11,1.6-.11.11,0,.17-.06.06-.29-.11-.29-.46-.8-.51-1.32-.23-2,1.2-2.29,1.43-2.35.34-.06.63-.06.97,0,.11,0,.4.06.46.17.11.23-.06.63-.17,1.09-.11.34-1.08,3.89-1.37,4.87-.17.74-.91,2.35-1.66,2.58-.17.06-.4.06-.63,0-.23-.06-.46-.17-.63-.29-.46-.46-.74-1.37-.8-2.06-.06-.86.11-1.49-.06-1.49-.3,0-1.29.39-1.7.69h0c-.16.12-.17.14-.17.14,0,0-.02.02-.02.02-.1.18-.1.82-.05,1.21.17.86.63,1.83,1.31,2.29,1.83,1.26,5.03-1.03,5.37-1.26.51-.46.86-1.09.97-1.55.17-.57.46-1.55.46-1.55h1.71s-.69,2.58-.86,3.21c-.17.52-.29,1.37.17,1.32,1.71,0,2.4-.63,2.45-.69.06-.06.06-.17,0-.23-.11-.06-.51-.46-.29-1.03"/>
</svg>