<?xml version="1.0" encoding="UTF-8"?>
<svg id="Layer_13" data-name="Layer 13" xmlns="http://www.w3.org/2000/svg" viewBox="0 0 92 44">
  <defs>
    <style>
      .cls-1 {
        fill: #fff;
      }

      .cls-2 {
        fill: #ddd;
      }
    </style>
  </defs>
  <path class="cls-1" d="m35.16,11.16h21.69v21.69h-21.69V11.16Z"/>
  <path class="cls-2" d="m55.4,20.17c-.04.68-.25,1.52-.44,2.08-.76,2.27-1.65,3.67-3.69,3.67-.6,0-1.67-.16-2.07-1.23l-.09-.25-.17.21c-.64.81-1.59,1.28-2.61,1.28-.78,0-1.41-.26-1.81-.76l-.11-.14-.12.13c-.43.48-1.19.75-2.07.75-.69,0-1.29-.23-1.69-.66l-.11-.12-.11.11c-.44.44-1.13.66-2,.64-1.05-.03-1.69-.61-1.71-1.57-.03-1.48,1.4-4.59,1.99-5.54.39-.63.91-.94,1.62-.94.48,0,.81.1,1,.31.18.19.21.35.23.73l.02.49.26-.42c.63-1.01,1.67-1.15,2.7-1.15.72,0,1.34.26,1.6.67l.09.15.13-.11c.53-.45,1.28-.7,2.11-.7.91,0,1.57.23,1.96.67.09.1.15.17.23.34l.1.21.15-.18c.58-.68,1.36-1.03,2.34-1.03.77,0,1.36.2,1.74.61.48.51.55,1.22.52,1.73m-20.24,12.67h21.69V11.16h-21.69v21.69Z"/>
  <path d="m56.01,21c-.1.79-.63,2.25-.92,2.84-.76,1.57-1.78,2.77-3.73,2.77-1.05,0-1.91-.33-2.41-.97-.74.64-1.65.98-2.63.98-.76,0-1.43-.22-1.93-.62-.56.4-1.32.62-2.16.62-.7,0-1.33-.19-1.83-.55-.55.36-1.26.54-2.11.52-1.4-.03-2.37-.92-2.4-2.21-.04-1.71,1.41-4.85,2.09-5.94.51-.84,1.29-1.29,2.24-1.29,1.03,0,1.41.3,1.59.67.8-.68,1.85-.72,2.61-.72.83,0,1.35.22,1.8.57.61-.37,1.31-.56,2.15-.56,1.07,0,1.86.25,2.42.8.65-.54,1.46-.78,2.36-.78,1.2,0,1.99.43,2.45,1.08.65.91.54,1.82.42,2.79m-20.86,11.84h21.69V11.16h-21.69v21.69Z"/>
  <path d="m35.31,11.31h21.38v21.38h-21.38V11.31Zm-.3,21.68h21.98V11.01h-21.98v21.98h0Z"/>
  <path d="m56,17.11c-.29,0-.53.23-.53.53h0c0,.29.23.53.52.53h0c.29,0,.53-.23.53-.53,0-.29-.23-.53-.53-.53h0m0,.1c.23,0,.42.19.42.42s-.19.42-.42.42-.42-.19-.42-.42c0-.23.19-.42.42-.42Zm.27.7l-.06-.11c-.05-.1-.07-.11-.12-.13h0c.09-.01.15-.07.15-.16s-.06-.15-.17-.15h-.27v.55h.11v-.22h.02s.07,0,.09.03c.02.02.05.07.07.11l.04.09h.14Zm-.36-.31v-.15h.1c.07,0,.11.03.11.07,0,.04-.02.07-.1.07h-.11Zm-2.63,2.52c-.02.56-.85,2.81-1.14,3.3-.13.22-.27.39-.53.39-.22,0-.32-.16-.33-.34-.02-.51.91-3.05,1.23-3.46.14-.22.3-.25.48-.25.26,0,.29.19.28.36m1.5.92c-.19.93-.61,2.03-1.06,2.85-.74,1.34-1.65,1.53-2.44,1.52-.79,0-1.68-.3-1.69-1.52,0-.87.37-2.11.69-2.92.56-1.47,1.13-2.66,2.93-2.64,2.1.03,1.73,1.9,1.56,2.71h0Zm-6.68-1.3c-.31,0-.5.19-.65.4-.33.46-1.03,2.29-1.14,3.05-.07.52.15.62.39.62.39,0,.83-.41.98-1.1,0,0-.74-.02-.54-.68.2-.64.58-.78,1.2-.8,1.24-.05,1.11.86,1.01,1.35-.32,1.58-1.44,2.85-3.03,2.85-1.09,0-1.76-.6-1.76-1.71,0-.79.39-2.03.7-2.76.66-1.55,1.36-2.63,3.12-2.63,1.06,0,1.9.38,1.77,1.38-.09.73-.45,1.16-1.12,1.21-.19.01-.94,0-.69-.72.09-.25.13-.45-.25-.45h0Zm-5.53,2.73c-.07.2-.21.61-.32,1.05.36-.09.63-.15,1.1-.14.53.01.87.23.87.67,0,1.06-1.17,1.37-1.98,1.37-.89,0-1.68-.51-1.68-1.48,0-1.14.62-2.88,1.2-4.03.71-1.42,1.44-1.61,2.7-1.61.55,0,1.19.24,1.19.76,0,.72-.61,1-1.22,1.03-.26.01-.66.03-.9.01,0,0-.2.31-.42.86,1.12-.16,1.6.1,1.41.75-.26.88-1.02.94-1.95.77h0Zm-3.58,1.02c1.1-.19,1.38.21,1.34.57-.1,1.1-1.11,1.35-1.99,1.33-.64-.01-1.21-.31-1.23-1.05-.03-1.29,1.29-4.29,1.91-5.28.29-.47.64-.7,1.19-.7.53,0,.66.27.65.6-.02.87-1.42,3.5-1.88,4.53h0Zm14.15-5.81c-1.14,0-1.92.45-2.45,1.08-.09-.19-.16-.27-.25-.38-.44-.49-1.14-.72-2.07-.72s-1.68.29-2.21.74c-.28-.45-.93-.75-1.73-.75-1.03,0-2.16.15-2.83,1.22-.02-.39-.05-.59-.27-.82-.26-.28-.69-.35-1.11-.35-.76,0-1.33.33-1.75,1.01-.6.96-2.05,4.1-2.02,5.62.02.98.68,1.69,1.86,1.72.92.02,1.65-.23,2.11-.69.41.45,1.04.71,1.8.71.84,0,1.69-.25,2.18-.8.42.52,1.08.82,1.93.81,1.11,0,2.09-.53,2.73-1.34.35.95,1.24,1.33,2.21,1.33,2.13,0,3.06-1.46,3.84-3.77.17-.52.41-1.39.45-2.12.06-1.21-.45-2.5-2.42-2.5h0Z"/>
</svg>