<?xml version="1.0" encoding="UTF-8"?>
<svg id="Layer_14" data-name="Layer 14" xmlns="http://www.w3.org/2000/svg" viewBox="0 0 92 44">
  <defs>
    <style>
      .cls-1 {
        fill: #1d1d1b;
      }
    </style>
  </defs>
  <path class="cls-1" d="m41.12,14.45v10.66h-.98v-8.71l-3.51,6.81h-.69l-3.51-6.79v8.69h-.98v-10.66h1.02l3.82,7.36,3.82-7.36s1.01,0,1.01,0Zm10.37,10.81l-1.77-1.9c-.64,1.01-1.51,1.74-2.95,1.74-1.85,0-3.21-1.28-3.21-2.85,0-1.31.81-2.12,2.37-3.01-.88-.88-1.38-1.62-1.38-2.49,0-1.27,1.07-2.28,2.37-2.28,1.38,0,2.4,1.01,2.4,2.28s-.96,2.04-1.92,2.67l2.2,2.4,1.3-2.11.78.49-1.44,2.34,1.97,2.09-.71.62Zm-4.95-5.35c-1.39.76-2,1.38-2,2.32,0,1.09.98,1.99,2.23,1.99,1.13,0,1.71-.52,2.34-1.53l-2.56-2.78Zm-1.02-3.16c0,.59.4,1.1,1.27,2.03,1.02-.6,1.59-1.22,1.59-2.03s-.53-1.42-1.45-1.42c-.85,0-1.4.67-1.4,1.42m14.95-.03l-.88.32c-.35-1.12-1.35-1.84-2.69-1.84-1.47,0-2.43.73-2.43,1.97,0,2.66,6.08,1.25,6.08,4.99,0,1.78-1.44,3.04-3.57,3.04-1.99,0-3.18-.95-4-2.46l.83-.5c.55,1.16,1.56,2.06,3.09,2.06,1.77,0,2.69-.81,2.69-2.16,0-2.67-6.08-1.36-6.08-4.99,0-2.16,1.94-2.85,3.37-2.85,1.61,0,3.08.73,3.6,2.41"/>
  <polygon class="cls-1" points="38.45 30.66 39.49 30.66 39.49 30.38 38.45 30.38 38.45 29.7 39.57 29.7 39.57 29.42 38.16 29.42 38.16 31.64 39.63 31.64 39.63 31.37 38.45 31.37 38.45 30.66"/>
  <path class="cls-1" d="m41.12,30.37h-.01c-.32-.1-.49-.16-.49-.37s.17-.34.44-.34c.22,0,.39.09.47.26l.03.07.24-.14-.02-.05c-.16-.38-.58-.41-.7-.41-.28,0-.74.13-.74.62,0,.43.38.54.72.64.33.1.52.16.52.38s-.2.38-.5.38c-.28,0-.49-.12-.6-.35l-.03-.07-.24.14.03.06c.16.32.46.5.84.5.47,0,.79-.28.79-.67,0-.44-.41-.56-.74-.65"/>
  <polygon class="cls-1" points="42.36 29.7 43.04 29.7 43.04 31.64 43.33 31.64 43.33 29.7 44.01 29.7 44.01 29.42 42.36 29.42 42.36 29.7"/>
  <path class="cls-1" d="m44.77,31.3c-.1,0-.19.08-.19.19s.08.19.19.19.19-.08.19-.19c0-.1-.09-.19-.19-.19"/>
  <polygon class="cls-1" points="46.43 29.79 46.77 29.79 46.77 31.64 47.06 31.64 47.06 29.51 46.44 29.51 46.43 29.79"/>
  <path class="cls-1" d="m53.47,29.51h-.16l-1.04,1.45v.2h1.09v.5h.28v-.5h.28v-.24l-.28-.03v-1.37h-.15m-.83,1.36l.7-.96v.96h-.7Z"/>
  <path class="cls-1" d="m49.07,30.52c.19-.1.3-.25.3-.47,0-.39-.31-.58-.69-.58s-.69.2-.69.58c0,.22.11.37.29.47-.2.09-.36.25-.36.5,0,.38.28.64.76.64s.76-.27.76-.64c0-.25-.17-.41-.37-.5m-.82-.46c0-.23.15-.36.42-.36s.42.13.42.36-.21.34-.42.34c-.23,0-.42-.13-.42-.34m.42,1.37c-.27,0-.48-.13-.48-.41,0-.26.23-.39.48-.39s.48.13.48.39c0,.28-.21.41-.48.41"/>
  <path class="cls-1" d="m51.2,30.52c.19-.1.3-.25.3-.47,0-.39-.31-.58-.69-.58s-.69.2-.69.58c0,.22.11.37.29.47-.2.09-.36.25-.36.5,0,.38.28.64.76.64s.76-.27.76-.64c0-.25-.16-.41-.37-.5m-.82-.46c0-.23.15-.36.42-.36s.42.13.42.36-.21.34-.42.34c-.23,0-.42-.13-.42-.34m.42,1.37c-.27,0-.48-.13-.48-.41,0-.26.23-.39.48-.39s.48.13.48.39c0,.28-.21.41-.48.41"/>
</svg>