<?xml version="1.0" encoding="UTF-8"?>
<svg id="Layer_15" data-name="Layer 15" xmlns="http://www.w3.org/2000/svg" viewBox="0 0 92 44">
  <path id="Logo0" d="m24.75,24.46c0,.53.12.93.27,1.18.16.28.47.46.8.46.39,0,.74-.1,1.43-1.04.55-.76,1.2-1.83,1.63-2.49l.74-1.13c.51-.79,1.1-1.66,1.78-2.25.55-.48,1.15-.75,1.76-.75,1.01,0,1.97.59,2.71,1.68.81,1.2,1.2,2.72,1.2,4.28,0,.93-.18,1.61-.5,2.15-.3.52-.89,1.04-1.88,1.04v-1.49c.85,0,1.06-.78,1.06-1.67,0-1.27-.3-2.67-.95-3.68-.46-.71-1.06-1.15-1.72-1.15-.71,0-1.29.54-1.93,1.5-.34.51-.69,1.13-1.09,1.83l-.43.77c-.87,1.55-1.09,1.9-1.53,2.48-.77,1.02-1.42,1.41-2.28,1.41-1.02,0-1.67-.44-2.07-1.11-.33-.54-.49-1.25-.49-2.07l1.49.05Z"/>
  <path id="Logo1" d="m24.43,20.21c.68-1.05,1.67-1.79,2.8-1.79.66,0,1.31.19,1.99.75.74.61,1.54,1.61,2.53,3.25l.35.59c.86,1.43,1.34,2.16,1.63,2.51.37.44.62.58.96.58.85,0,1.06-.78,1.06-1.67l1.31-.04c0,.93-.18,1.61-.5,2.15-.3.52-.89,1.04-1.88,1.04-.61,0-1.16-.13-1.76-.7-.46-.44-1-1.21-1.42-1.91l-1.24-2.07c-.62-1.04-1.19-1.81-1.52-2.16-.35-.38-.81-.83-1.54-.83-.59,0-1.09.41-1.51,1.04l-1.27-.75Z"/>
  <path id="Logo2" d="m27.21,19.92c-.59,0-1.09.41-1.51,1.04-.59.89-.95,2.22-.95,3.5,0,.53.12.93.27,1.18l-1.27.84c-.33-.54-.49-1.25-.49-2.07,0-1.48.4-3.01,1.18-4.2.68-1.05,1.67-1.79,2.8-1.79l-.02,1.5Z"/>
  <path id="Text" d="m39.95,18.71h1.72l2.93,5.3,2.93-5.3h1.69v8.71h-1.41v-6.68l-2.57,4.62h-1.32l-2.57-4.62v6.68h-1.41v-8.71Zm13.68,3.25c-1.01,0-1.62.76-1.76,1.7h3.42c-.07-.97-.63-1.7-1.66-1.7h0Zm-3.16,2.23c0-1.98,1.28-3.42,3.18-3.42s2.99,1.42,2.99,3.52v.39h-4.77c.17,1.02.85,1.71,1.94,1.71.87,0,1.42-.27,1.94-.75l.75.91c-.7.65-1.6,1.02-2.73,1.02-2.06,0-3.29-1.5-3.29-3.39h0Zm7.87-2.11h-1.29v-1.15h1.29v-1.9h1.36v1.9h1.97v1.15h-1.97v2.92c0,1,.32,1.35,1.1,1.35.29,0,.58-.03.87-.08v1.14c-.37.1-.75.16-1.13.16-1.46,0-2.2-.8-2.2-2.4v-3.08Zm9.04,1.12c-.27-.69-.88-1.19-1.77-1.19-1.16,0-1.9.82-1.9,2.17s.68,2.17,1.85,2.17c.92,0,1.57-.53,1.83-1.2v-1.95Zm1.36,4.22h-1.33v-.91c-.37.54-1.05,1.06-2.15,1.06-1.76,0-2.94-1.48-2.94-3.4s1.21-3.4,3.02-3.4c.9,0,1.6.36,2.07.99v-.83h1.33v6.49Z"/>
</svg>