<?xml version="1.0" encoding="UTF-8"?>
<svg id="Layer_16" data-name="Layer 16" xmlns="http://www.w3.org/2000/svg" viewBox="0 0 92 44">
  <defs>
    <style>
      .cls-1 {
        fill-rule: evenodd;
      }
    </style>
  </defs>
  <g id="layer1">
    <g id="g2433">
      <path id="path7" class="cls-1" d="m24.71,17.8c2.3-1.74,4.12-3.79,5.74-5.98l-2.67,5.94.27.65,2.52-2.2v6.3l-2.79,2.59.76-5.3-1.04,1.28-.6-1.32c-1.46,3.16-2.92,6.32-4.38,9.49-.16.35.2.61.52.36l2.03-1.67-8.13,8.25,8.53-16.46,1.47-2.87c.03-.06,0-.24-.2-.18l-2.03,1.14h0Z"/>
      <path id="path9" class="cls-1" d="m44.71,16.2h1.93v4.51h2.41v1.76h-4.34v-6.27h0Z"/>
      <path id="path11" class="cls-1" d="m49.37,16.2h1.93v4.51h2.25v1.76h-4.18v-6.27h0Z"/>
      <polygon id="polygon13" class="cls-1" points="53.94 16.2 55.9 16.2 55.9 22.46 53.94 22.46 53.94 16.2"/>
      <polygon id="polygon15" class="cls-1" points="39 17.91 39 22.46 36.93 22.46 36.93 17.91 35.89 17.91 35.89 16.2 41.37 16.2 40.64 17.91 39 17.91"/>
      <path id="path17" class="cls-1" d="m31.06,16.2h4.39v1.71h-2.43v.63h2.43v1.71h-2.43v.51h2.43v1.71h-4.39v-6.27h0Z"/>
      <path id="path19" class="cls-1" d="m44.19,16.2l.02,6.27h-1.86v-1.76h-.14l-.87,1.76h-2l2.75-6.27h2.1Zm-2.08,3.22l.48.02v-.89l-.48.87h0Z"/>
      <path id="path21" class="cls-1" d="m59.6,15.83c.85,0,1.63.32,2.22.84l-1.43,1.49c-.22-.18-.51-.29-.82-.29-.71,0-1.28.56-1.28,1.25s.58,1.25,1.28,1.25c.52,0,.97-.3,1.17-.74l1.77,1.14c-.57,1.01-1.66,1.7-2.91,1.7-1.84,0-3.33-1.49-3.33-3.32,0-1.83,1.5-3.32,3.33-3.32h0Z"/>
      <path id="path23" class="cls-1" d="m60.9,11.91c1.94,1.72,3.91,3.41,5.95,5.02-.68-.4-1.36-.8-2.05-1.2-.23-.11-.56,0-.32.46,3.53,6.62,7.12,13.21,10.57,19.86-3.01-2.81-5.9-5.56-8.69-8.26l2.92,1.81c.35.15.57-.14.21-.72l-3.53-7.33-.61-1.22-.82-.03.77,4.91-2.38-2.75-.41-7.63-1.63-2.92h0Zm3.33,6.7h.47l-.68-1.11.21,1.11h0Z"/>
    </g>
  </g>
</svg>