<?xml version="1.0" encoding="UTF-8"?>
<svg id="Layer_17" data-name="Layer 17" xmlns="http://www.w3.org/2000/svg" viewBox="0 0 92 44">
  <defs>
    <style>
      .cls-1 {
        isolation: isolate;
        opacity: .7;
      }
    </style>
  </defs>
  <path d="m47.13,17.57c-.19.07-.95.33-1.29.45,0,0,0,1.35,0,1.72h-.95v1.14h.95v3.85c0,1.31.84,1.69,1.54,1.69.59,0,.95-.05,1.36-.15v-1.13c-.16.05-.4.1-.69.1-.51,0-.92-.1-.92-.83v-3.53h1.61v-1.14h-1.61c0-.13,0-1.79,0-2.18h0Z"/>
  <path d="m56.36,23.29c-.07.34-.12.59-.13.7-.02-.11-.07-.36-.15-.7-.39-1.52-1.37-5.36-1.44-5.69-.29,0-.95,0-1.3,0-.05.23-1.03,4.15-1.42,5.69-.09.35-.15.67-.15.7,0-.03-.07-.35-.13-.7-.3-1.5-1.05-5.25-1.14-5.7-.27,0-1.22,0-1.36,0,0,0,1.63,7.81,1.82,8.68h1.34c.07-.23,1.12-4.33,1.52-5.87.08-.32.13-.59.15-.63,0,.05.07.31.15.62.38,1.47,1.36,5.28,1.5,5.88h1.36c.08-.42,1.66-8.23,1.74-8.68-.21,0-.95,0-1.29,0-.03.19-.76,4.16-1.05,5.7h0Z"/>
  <path d="m42.98,24.44c-.31.39-.88.83-1.63.83s-1.14-.47-1.14-1.03.42-1.01,1.37-1.01h1.4v1.21h0Zm-1.24-4.83c-.73,0-1.45.12-1.97.34v1.16c.35-.17,1.2-.34,1.75-.34,1.45,0,1.46.64,1.46,1.33h-1.48c-1.69,0-2.59,1.03-2.59,2.13,0,1.53,1.26,2.18,2.28,2.18.92,0,1.44-.43,1.81-.79,0,.19,0,.34,0,.64h1.28v-4.45c0-2.04-1.82-2.22-2.53-2.22h0Z"/>
  <path d="m36.68,17.6c0,.18,0,6.04,0,5.97,0,.08,0,.31,0,.53-.11-.21-.23-.41-.27-.47-.11-.2-3.52-5.67-3.72-6.03h-1.3c0,.22,0,8.59,0,8.68h1.27v-5.96c0-.13,0-.36-.01-.51.06.13.18.33.27.47.08.14,3.55,5.65,3.76,6,.21,0,1.04,0,1.27,0,0-.26,0-8.41,0-8.68-.15,0-1,0-1.26,0h0Z"/>
  <path d="m60.25,22.41c0-.72.5-1.64,1.52-1.64,1.1,0,1.47,1.01,1.47,1.64h-2.99Zm1.59-2.78c-.99,0-2.95.65-2.95,3.41s1.98,3.38,3.05,3.38,1.56-.22,2.06-.45v-1.18c-.31.19-1,.49-1.86.49-1.51,0-1.89-1.04-1.89-1.77h4.3c.24-1.67-.44-3.87-2.71-3.87h0Z"/>
  <path d="m74.22,20.89c0-.14,0-1.09,0-1.14h-1.61c0-.13,0-1.79,0-2.18-.19.07-.95.33-1.29.45,0,0,0,1.35,0,1.72h-.95c0,.13,0,1.05,0,1.14h.95v3.85c0,1.31.84,1.69,1.55,1.69.59,0,.95-.05,1.36-.15v-1.13c-.17.05-.41.1-.69.1-.51,0-.92-.1-.92-.83v-3.53h1.61Z"/>
  <path d="m68.52,22.61c-.21-.09-.46-.2-.84-.37-.38-.17-.94-.38-.94-.86,0-.43.42-.64,1.03-.64s1.15.14,1.77.44v-1.21c-.27-.14-1.03-.35-1.82-.35-1.75,0-2.31,1.09-2.31,1.8,0,1.12.8,1.52,1.25,1.73.52.23.78.34,1.17.51.57.25.88.39.88.86,0,.41-.34.76-1.16.76s-1.59-.31-2.04-.54v1.23c.55.26,1.35.44,2.08.44,1.65,0,2.45-1.02,2.45-1.93s-.44-1.43-1.52-1.9h0Z"/>
  <path class="cls-1" d="m24.11,22.52s.04.04.07.04.06-.01.07-.04l1.3-2.26c.05-.1.06-.21,0-.31l-1.26-2.19c-.06-.1-.17-.17-.3-.17h-.12c.11,0,.19.08.19.19,0,.03,0,.06-.02.09l-1.15,1.97c-.1.18-.1.41,0,.6l1.21,2.09h0Z"/>
  <path class="cls-1" d="m22.03,21.34s.01-.05,0-.08c-.01-.02-.04-.04-.07-.04h-2.61c-.1,0-.21.06-.26.15l-1.27,2.19c-.06.1-.06.24,0,.35l.06.09c-.05-.08-.02-.2.07-.25.03-.02.06-.02.08-.02h2.28c.21,0,.41-.11.51-.31l1.2-2.09h0Z"/>
  <path class="cls-1" d="m22.05,23.73s-.06.02-.07.05c-.01.03-.02.05,0,.08l1.3,2.26c.06.09.16.16.28.16h2.53c.12,0,.24-.07.3-.18l.06-.09c-.05.08-.17.11-.26.06-.03-.02-.05-.04-.06-.05l-1.13-1.98c-.11-.17-.31-.29-.53-.29h-2.41Z"/>
  <path d="m22.89,19.84l1.15-1.97s.02-.05.02-.09c0-.1-.08-.19-.19-.19h-2.42c-.12,0-.22.06-.27.15l-1.3,2.25s-.01.06,0,.08c.01.02.04.04.07.04h2.44c.21,0,.41.12.51.29v.02c-.1-.19-.09-.42,0-.6h0Z"/>
  <path d="m20.31,23.74h-2.28s-.06,0-.08.02c-.09.05-.12.17-.07.25l1.22,2.1c.06.1.16.17.26.17h2.6s.06-.02.07-.04c.02-.03.02-.06,0-.08l-1.22-2.11c-.11-.18-.09-.4,0-.58v-.02c-.1.19-.3.3-.5.31h0Z"/>
  <path d="m24.99,24.02l1.13,1.98s.04.04.06.05c.09.05.2.02.26-.06l1.21-2.1c.06-.1.06-.23,0-.32l-1.3-2.25s-.04-.04-.07-.04-.06.01-.07.04l-1.22,2.11c-.11.19-.31.29-.51.29h-.02c.22,0,.42.12.53.29h0Z"/>
</svg>