<?xml version="1.0" encoding="UTF-8"?>
<svg id="Layer_18" data-name="Layer 18" xmlns="http://www.w3.org/2000/svg" viewBox="0 0 92 44">
  <defs>
    <style>
      .cls-1 {
        opacity: .7;
      }

      .cls-1, .cls-2 {
        isolation: isolate;
      }

      .cls-2 {
        opacity: .68;
      }
    </style>
  </defs>
  <g id="Group_17284" data-name="Group 17284">
    <g id="Group_17282" data-name="Group 17282">
      <g id="Group_17281" data-name="Group 17281">
        <g id="Group_17280" data-name="Group 17280">
          <path id="Path_11043" data-name="Path 11043" d="m59.46,18.66h-2.74c-.19,0-.35.14-.38.32l-1.11,7.03c-.02.12.07.24.19.26.01,0,.02,0,.04,0h1.41c.13,0,.24-.1.26-.22l.31-1.99c.03-.19.19-.32.38-.32h.87c1.8,0,2.85-.87,3.12-2.61.12-.76,0-1.35-.35-1.77-.39-.46-1.08-.7-2-.7h0Zm.32,2.57c-.15.98-.9.98-1.63.98h-.41l.29-1.84c.02-.11.11-.19.23-.19h.19c.49,0,.96,0,1.2.28.14.17.19.42.13.76h0Z"/>
          <path id="Path_11044" data-name="Path 11044" d="m39.92,18.66h-2.74c-.19,0-.35.14-.38.32l-1.11,7.03c-.02.12.07.24.19.26.01,0,.02,0,.04,0h1.31c.19,0,.35-.14.38-.32l.3-1.9c.03-.19.19-.32.38-.32h.87c1.8,0,2.85-.87,3.12-2.61.12-.76,0-1.35-.35-1.77-.39-.46-1.08-.7-2-.7h0Zm.32,2.57c-.15.98-.9.98-1.63.98h-.41l.29-1.84c.02-.11.11-.19.23-.19h.19c.49,0,.96,0,1.2.28.14.17.19.42.13.76h0Z"/>
          <path id="Path_11045" data-name="Path 11045" d="m48.11,21.19h-1.31c-.11,0-.21.08-.23.19l-.06.37-.09-.13c-.28-.41-.92-.55-1.55-.55-1.45,0-2.69,1.1-2.93,2.64-.13.77.05,1.5.49,2.02.4.47.97.67,1.65.67.68,0,1.34-.26,1.82-.75l-.06.36c-.02.12.07.24.19.26.01,0,.02,0,.04,0h1.18c.19,0,.35-.14.38-.32l.71-4.49c.02-.12-.07-.24-.19-.26-.01,0-.02,0-.04,0h0Zm-1.83,2.55c-.1.73-.74,1.27-1.48,1.25-.56.06-1.06-.35-1.12-.91-.01-.12,0-.25.03-.37.1-.73.73-1.27,1.47-1.26.33-.02.65.11.87.36.21.26.29.6.22.93h0Z"/>
          <path id="Path_11046" data-name="Path 11046" d="m67.65,21.19h-1.31c-.11,0-.21.08-.23.19l-.06.37-.09-.13c-.28-.41-.92-.55-1.55-.55-1.45,0-2.69,1.1-2.93,2.64-.12.77.05,1.5.49,2.02.4.47.97.67,1.65.67.68,0,1.34-.26,1.82-.75l-.06.36c-.02.12.07.24.19.26.01,0,.02,0,.04,0h1.18c.19,0,.35-.14.38-.32l.71-4.49c.02-.12-.07-.24-.19-.26-.01,0-.02,0-.04,0h0Zm-1.83,2.55c-.1.73-.74,1.27-1.48,1.25-.56.06-1.06-.35-1.12-.91-.01-.12,0-.25.03-.37.1-.73.73-1.27,1.47-1.26.33-.02.65.11.87.36.21.26.29.6.22.93h0Z"/>
          <path id="Path_11047" data-name="Path 11047" d="m55.09,21.19h-1.32c-.13,0-.24.06-.31.17l-1.82,2.68-.77-2.58c-.05-.16-.2-.27-.36-.27h-1.3c-.13,0-.23.1-.23.23,0,.02,0,.05.01.07l1.45,4.26-1.36,1.93c-.07.1-.05.25.06.32.04.03.09.04.13.04h1.32c.12,0,.24-.06.31-.16l4.38-6.33c.07-.1.05-.25-.06-.32-.04-.03-.08-.04-.13-.04h0Z"/>
          <path id="Path_11048" data-name="Path 11048" d="m69.19,18.85l-1.12,7.15c-.02.12.07.24.19.26.01,0,.02,0,.04,0h1.13c.19,0,.35-.14.38-.32l1.11-7.03c.02-.12-.07-.24-.19-.26-.01,0-.02,0-.04,0h-1.27c-.11,0-.21.08-.22.19h0Z"/>
        </g>
      </g>
    </g>
    <g id="Group_17283" data-name="Group 17283">
      <path id="Path_11049" data-name="Path 11049" class="cls-2" d="m30.32,19.03c.15-.94,0-1.58-.51-2.16-.56-.64-1.57-.91-2.87-.91h-3.76c-.27,0-.49.19-.53.45l-1.56,9.92c-.03.18.09.34.27.37.02,0,.03,0,.05,0h2.32l-.16,1.02c-.02.15.08.3.23.32.01,0,.03,0,.04,0h1.96c.23,0,.43-.17.46-.4l.02-.1.37-2.34.02-.13c.04-.23.23-.4.46-.4h.29c1.89,0,3.38-.77,3.81-3,.18-.93.09-1.71-.39-2.25-.15-.17-.33-.31-.54-.41h0"/>
      <path id="Path_11050" data-name="Path 11050" class="cls-1" d="m30.32,19.03c.15-.94,0-1.58-.51-2.16-.56-.64-1.57-.91-2.87-.91h-3.76c-.27,0-.49.19-.53.45l-1.56,9.92c-.03.18.09.34.27.37.02,0,.03,0,.05,0h2.32l.58-3.69-.02.12c.04-.26.27-.45.53-.45h1.1c2.17,0,3.86-.88,4.36-3.42.01-.07.03-.15.04-.22"/>
      <path id="Path_11051" data-name="Path 11051" d="m24.94,19.04c.04-.23.23-.4.46-.4h2.95c.33,0,.65.02.97.07.09.01.17.03.25.05s.16.04.23.06c.04.01.07.02.11.04.14.05.28.1.41.17.15-.94,0-1.58-.51-2.16-.56-.64-1.57-.91-2.87-.91h-3.76c-.27,0-.49.19-.53.45l-1.56,9.92c-.03.18.09.34.27.37.02,0,.03,0,.05,0h2.32l.58-3.69.63-3.97h0Z"/>
    </g>
  </g>
</svg>