<?xml version="1.0" encoding="UTF-8"?>
<svg id="Layer_19" data-name="Layer 19" xmlns="http://www.w3.org/2000/svg" viewBox="0 0 92 44">
  <path id="path4664" d="m25.17,20.23c.51-1.87,2.64-2.31,4.6-2.37,1.61-.05,3.41.17,3.41.17l-.84,3.09s-1.8-.21-3.41-.17c-1.96.05-4.09.5-4.6,2.37l.84-3.09Z"/>
  <path id="path4655" d="m52.31,16.94c-2.58,0-3.24,2.5-3.61,3.85l-2.76,10.08h1.61l2.45-8.94h1.67l-1.11,4.07h1.61l1.33-4.88h-3.28c.17-.61.35-1.27.49-1.8.27-.99.71-1.7,1.35-1.68.71.03.35.49.25.85-.13.49.23.98.86.98,1.38,0,1.72-2.53-.86-2.53Zm-9.13,1.76h0s-2,7.3-2,7.3h1.68l.74-2.7h1.46c1.61,0,2.67-.89,2.96-2.12.27-1.15-.4-2.47-2.2-2.47-.88,0-1.76,0-2.64,0h0Zm1.44.86h.64c.68,0,1.21.54,1.08,1.48-.12.87-1.07,1.39-1.89,1.39h-.62l.79-2.88Zm15.91,1.41c-1.41,0-2.43,1.21-2.67,2.43-.23,1.17.43,2.71,2.27,2.71,1.31,0,1.97-.58,1.97-.58l-.3-.74s-.55.45-1.32.45-1.25-.6-1.14-1.57h3.13c.22-.57.35-2.7-1.94-2.7Zm6.23.07c-1.05,0-1.67,1.08-1.67,1.08l.27-1h-1.61l-1.33,4.88h1.61s.39-1.43.58-2.14c.3-1.11.93-1.81,1.22-1.84.34-.03.31.8.98.8,1.02,0,1.24-1.78-.06-1.78h0Zm-12.67.08l-.22.81h2.04l-3.21,4.07h4.53l.22-.81h-2.3l3.21-4.07h-4.27Zm6.42.66h0c.87,0,.68,1.16.68,1.16h-1.75s.29-1.16,1.08-1.16h0Z"/>
  <path id="path4668" d="m37.41,26.01c-5.77-.36-12.48-3.34-12.24-5.79l-.8,2.91c-.24,2.5,5.98,5.47,12.19,5.96l.84-3.09Z"/>
  <path id="path4672" d="m39.51,22c-.51,1.87-2.64,2.31-4.6,2.37-1.61.05-3.41-.17-3.41-.17l.84-3.09s1.8.21,3.41.17c1.96-.05,4.09-.5,4.6-2.37l-.84,3.09Z"/>
  <path id="path4674" d="m27.27,16.21c5.77.36,12.48,3.34,12.24,5.79l.8-2.91c.24-2.5-5.98-5.47-12.19-5.96l-.84,3.09Z"/>
</svg>