<?xml version="1.0" encoding="UTF-8"?>
<svg id="Layer_20" data-name="Layer 20" xmlns="http://www.w3.org/2000/svg" viewBox="0 0 92 44">
  <polygon points="38.2 15.01 38.2 10.96 41.68 10.96 41.68 15.01 41.68 15.01 45.73 15.01 45.73 18.49 41.68 18.49 41.68 18.49 41.68 22.54 38.2 22.54 38.2 18.49 38.2 18.49 34.15 18.49 34.15 15.01 38.2 15.01 38.2 15.01"/>
  <path d="m51.1,16.69c0-2.7,2.19-4.89,4.89-4.89.6,0,1.18.11,1.71.31-1-.79-2.26-1.26-3.64-1.26-3.24,0-5.86,2.63-5.86,5.86s2.62,5.86,5.86,5.86c1.42,0,2.72-.5,3.74-1.34-.56.22-1.17.35-1.81.35-2.7,0-4.89-2.19-4.89-4.89"/>
  <path d="m54.97,33.15c.6,0,1.15-.11,1.65-.32.49-.21.9-.52,1.24-.93l-1.04-.96c-.47.55-1.06.83-1.76.83-.43,0-.82-.1-1.16-.28s-.6-.45-.79-.79c-.19-.34-.28-.72-.28-1.16s.1-.82.28-1.16.45-.6.79-.79c.34-.19.72-.28,1.16-.28.7,0,1.28.27,1.76.82l1.04-.96c-.33-.4-.74-.7-1.23-.92-.49-.21-1.04-.32-1.64-.32-.72,0-1.37.15-1.94.46-.58.31-1.03.74-1.36,1.29-.33.55-.49,1.17-.49,1.86s.17,1.31.49,1.86c.33.55.78.98,1.36,1.29.58.31,1.22.46,1.93.46m-6.45-4.57c0,.39-.13.68-.38.9-.25.21-.62.32-1.11.32h-1.32v-2.43h1.32c.49,0,.85.1,1.11.31.25.21.38.51.38.9m1.77,4.45l-1.57-2.24c.46-.2.81-.49,1.06-.86.25-.38.37-.82.37-1.34s-.12-.97-.37-1.35-.6-.67-1.05-.88-.99-.31-1.61-.31h-3.02v6.98h1.62v-1.95h1.49l1.35,1.95h1.74Zm-7.58-5.68v-1.3h-5.28v6.98h1.62v-2.54h3.23v-1.3h-3.23v-1.85h3.66Zm-8.55,5.68h1.62v-6.98h-1.62v6.98Z"/>
</svg>