<?xml version="1.0" encoding="UTF-8"?>
<svg id="Layer_21" data-name="Layer 21" xmlns="http://www.w3.org/2000/svg" viewBox="0 0 92 44">
  <defs>
    <style>
      .cls-1 {
        fill: #fffffe;
        fill-rule: evenodd;
      }
    </style>
  </defs>
  <path d="m43.06,12.77c1.09-1.13,2.61-1.84,4.28-1.84,2.23,0,4.17,1.24,5.21,3.09.93-.41,1.93-.63,2.94-.63,4.02,0,7.28,3.29,7.28,7.34s-3.26,7.34-7.28,7.34c-.49,0-.97-.05-1.44-.14-.91,1.63-2.66,2.73-4.64,2.73-.81,0-1.61-.18-2.33-.54-.92,2.17-3.08,3.7-5.58,3.7s-4.84-1.65-5.69-3.97c-.38.08-.77.12-1.16.12-3.11,0-5.63-2.56-5.63-5.69,0-2.11,1.13-3.95,2.82-4.94-.36-.82-.54-1.71-.54-2.61,0-3.62,2.94-6.55,6.56-6.55,2.12,0,4.02,1.01,5.21,2.58"/>
  <path class="cls-1" d="m33.93,22.45c-.02.06,0,.07,0,.08.06.05.13.08.19.12.34.18.67.24,1.01.24.69,0,1.12-.37,1.12-.96h0c0-.56-.49-.76-.94-.9l-.06-.02c-.34-.11-.64-.21-.64-.43h0c0-.21.17-.35.44-.35.3,0,.65.1.88.22,0,0,.07.04.09-.02,0-.04.13-.34.14-.38,0-.04,0-.06-.03-.08-.26-.16-.62-.27-.99-.27h-.07c-.63,0-1.08.38-1.08.93h0c0,.59.49.78.95.91l.07.02c.33.1.62.19.62.42h0c0,.23-.19.39-.49.39-.12,0-.49,0-.89-.26-.05-.03-.08-.05-.11-.07-.02-.01-.07-.03-.09.03l-.14.38m10.14,0c-.02.06,0,.07,0,.08.06.05.13.08.19.12.34.18.67.24,1.01.24.69,0,1.12-.37,1.12-.96h0c0-.56-.49-.76-.94-.9l-.06-.02c-.34-.11-.64-.21-.64-.43h0c0-.21.17-.35.44-.35.3,0,.65.1.88.22,0,0,.07.04.09-.02,0-.04.13-.34.14-.38,0-.04,0-.06-.03-.08-.26-.16-.62-.27-.99-.27h-.07c-.63,0-1.08.38-1.08.93h0c0,.59.49.78.95.91l.07.02c.33.1.62.19.62.42h0c0,.23-.19.39-.49.39-.12,0-.49,0-.89-.26-.05-.03-.08-.05-.11-.07,0,0-.07-.03-.09.03l-.14.38m6.92-1.16c0,.33-.06.6-.18.79-.12.18-.31.28-.56.28s-.44-.09-.56-.27c-.12-.19-.18-.45-.18-.79s.06-.6.18-.78.3-.27.56-.27.44.09.56.27c.12.18.18.45.18.78m.58-.62c-.06-.19-.15-.36-.26-.5-.12-.14-.27-.26-.44-.34-.18-.08-.38-.12-.62-.12s-.44.04-.62.12-.33.2-.44.34c-.12.14-.21.31-.26.5-.06.19-.09.4-.09.62s.03.43.09.62.15.36.26.5c.12.14.27.25.44.33.18.08.39.12.62.12s.44-.04.62-.12.33-.19.44-.33c.12-.14.21-.31.26-.5.06-.19.08-.4.08-.62s-.03-.43-.08-.62m4.75,1.59c-.02-.06-.07-.03-.07-.03-.08.03-.17.06-.27.08-.1.02-.2.02-.32.02-.28,0-.5-.08-.66-.25s-.25-.43-.25-.79c0-.33.08-.57.22-.76s.36-.28.64-.28c.24,0,.42.03.61.09,0,0,.05.02.07-.04.05-.14.09-.24.14-.39.02-.04-.02-.06-.04-.07-.07-.03-.25-.08-.39-.1-.13-.02-.27-.03-.43-.03-.24,0-.46.04-.64.12s-.34.2-.47.34-.22.31-.28.5c-.06.19-.09.4-.09.62,0,.48.13.87.38,1.15.26.29.64.43,1.14.43.3,0,.6-.06.82-.15,0,0,.04-.02.02-.07l-.14-.39m1.01-1.29c.03-.19.08-.34.16-.46.12-.18.3-.28.56-.28s.43.1.55.28c.08.12.12.28.13.46h-1.4Zm1.95-.41c-.05-.18-.17-.37-.25-.46-.13-.14-.25-.23-.37-.28-.18-.08-.37-.11-.56-.11-.24,0-.47.04-.65.13-.18.08-.33.2-.45.34s-.21.31-.27.51c-.06.19-.09.4-.09.62s.03.44.09.63c.06.19.16.36.28.5.13.14.29.25.49.33s.44.12.71.12c.57,0,.86-.13.99-.2.02-.01.04-.03.02-.09l-.13-.36s-.07-.03-.07-.03c-.14.05-.34.15-.8.15-.3,0-.53-.09-.67-.23s-.22-.35-.23-.65h1.96s.05,0,.06-.05c0-.02.07-.4-.06-.84h0v-.03Zm-17.62.41c.03-.19.08-.34.16-.46.12-.18.3-.28.56-.28s.43.1.55.28c.08.12.12.28.13.46h-1.4Zm1.95-.41c-.05-.18-.17-.37-.25-.46-.13-.14-.25-.23-.37-.28-.18-.08-.37-.11-.56-.11-.24,0-.47.04-.65.13-.18.08-.33.2-.45.34s-.21.31-.27.51c-.06.19-.09.4-.09.62s.03.44.09.63c.06.19.16.36.28.5.13.14.29.25.49.33s.44.12.71.12c.57,0,.86-.13.99-.2.02-.01.04-.03.02-.09l-.13-.36s-.07-.03-.07-.03c-.14.05-.34.15-.8.15-.3,0-.53-.09-.67-.23s-.22-.35-.23-.65h1.96s.05,0,.06-.05c0-.02.07-.4-.06-.84h0v-.03Zm-6.18,1.69c-.08-.06-.09-.08-.11-.12-.04-.06-.06-.15-.06-.25,0-.17.06-.3.17-.38,0,0,.17-.15.57-.14.18,0,.36.02.53.05v.89h0s-.25.05-.53.07c-.4.02-.57-.11-.57-.11h0Zm.78-1.38h-.31c-.17,0-.33.02-.48.06-.15.04-.29.1-.41.19-.12.08-.22.19-.28.32-.07.13-.1.28-.1.45s.03.32.09.45c.06.12.15.23.26.31.11.08.24.14.4.17.15.04.33.05.52.05.2,0,.4-.02.59-.05.16-.03.33-.06.49-.1.07-.02.14-.03.14-.03.05-.01.04-.06.04-.06v-1.79c0-.39-.11-.68-.31-.86-.21-.18-.51-.27-.9-.27-.15,0-.38.02-.52.05,0,0-.43.08-.6.22,0,0-.04.02-.02.08l.14.37.06.03s0,0,.03-.02c.38-.2.85-.2.85-.2.21,0,.37.04.48.13.11.08.16.21.16.47v.08c-.17-.02-.32-.04-.32-.04h0Zm15.76-1.01s0-.06-.03-.07h0s-.2-.05-.33-.06c-.25-.02-.38.03-.5.08s-.26.14-.33.24v-.24s-.02-.06-.06-.06h-.5s-.06.03-.06.06v2.92s.03.06.06.06h.51s.06-.03.06-.06v-1.46c0-.2.02-.39.06-.51s.1-.22.17-.29c.07-.07.15-.12.24-.15.09-.02.17-.04.26-.04.1,0,.21.03.21.03.04,0,.06-.02.07-.05.03-.09.13-.36.15-.41"/>
  <path class="cls-1" d="m49.16,18.51c-.06-.02-.13-.03-.19-.05-.09-.01-.18-.02-.27-.02-.35,0-.63.1-.83.3-.19.2-.33.49-.39.89l-.02.13h-.44s-.05,0-.07.06l-.07.41s0,.06.06.06h.43l-.44,2.45c-.03.2-.07.36-.12.48-.04.12-.08.21-.14.28-.05.06-.1.11-.18.14-.07.02-.15.03-.23.03-.05,0-.11,0-.16-.02-.05,0-.07-.02-.11-.03,0,0-.05-.02-.07.03-.02.04-.13.36-.15.4,0,.04,0,.07.03.08.06.02.1.03.18.05.11.03.2.03.29.03.18,0,.34-.03.48-.07.14-.05.26-.14.36-.25.11-.13.19-.26.25-.44.07-.18.13-.4.17-.66l.44-2.49h.64s.05,0,.07-.06l.07-.41s0-.06-.06-.06h-.63s.03-.23.1-.44c.03-.09.09-.16.14-.21s.1-.08.16-.1c.07-.02.14-.03.21-.03.06,0,.12,0,.16.02.06.01.08.02.1.02.06.02.07,0,.08-.03l.15-.41s-.02-.06-.04-.07m-8.74,4.23s-.02.06-.06.06h-.52s-.06-.03-.06-.06v-4.18s.02-.06.06-.06h.52s.06.03.06.06v4.18"/>
</svg>