<?xml version="1.0" encoding="UTF-8"?>
<svg id="Layer_22" data-name="Layer 22" xmlns="http://www.w3.org/2000/svg" viewBox="0 0 92 44">
  <defs>
    <style>
      .cls-1 {
        fill: #fff;
      }
    </style>
  </defs>
  <g id="g8882">
    <path id="path10" d="m73.17,18.42c.69,3.98-10.13,9.18-24.18,11.63-14.05,2.45-25.99,1.21-26.69-2.77-.69-3.98,10.13-9.18,24.18-11.63,14.05-2.45,25.99-1.21,26.68,2.77Z"/>
    <g id="g8872">
      <polygon id="polygon16" class="cls-1" points="59.95 24.32 59.88 20.18 61.18 20.18 61.18 25.4 59.31 25.4 58.01 21.12 57.98 21.12 58.05 25.4 56.76 25.4 56.76 20.18 58.71 20.18 59.92 24.32 59.95 24.32"/>
      <polygon id="polygon18" class="cls-1" points="36.26 20.67 35.54 25.45 34.11 25.45 35.09 20.18 37.43 20.18 38.4 25.45 36.99 25.45 36.29 20.67 36.26 20.67"/>
      <polygon id="polygon20" class="cls-1" points="41.72 25.45 40.84 20.72 40.81 20.72 40.77 25.45 39.46 25.45 39.57 20.18 41.72 20.18 42.37 24.21 42.4 24.21 43.05 20.18 45.2 20.18 45.31 25.45 43.99 25.45 43.96 20.72 43.93 20.72 43.05 25.45 41.72 25.45"/>
      <path id="path22" class="cls-1" d="m31.9,23.96c.05.13.04.29.01.39-.04.18-.16.35-.51.35-.33,0-.53-.19-.53-.48v-.51h-1.41v.41c0,1.17.92,1.53,1.91,1.53s1.74-.33,1.86-1.2c.06-.45.02-.75,0-.86-.22-1.1-2.22-1.43-2.37-2.05-.03-.11-.02-.22,0-.28.04-.17.15-.35.48-.35.31,0,.49.19.49.48v.33h1.31v-.37c0-1.15-1.03-1.33-1.78-1.33-.94,0-1.7.31-1.84,1.17-.04.24-.04.45.01.71.23,1.08,2.1,1.39,2.37,2.07h0Z"/>
      <path id="path24" class="cls-1" d="m49.02,23.95c.05.13.04.29.01.38-.04.17-.16.35-.51.35-.33,0-.52-.19-.52-.47v-.51h-1.4v.4c0,1.16.91,1.51,1.89,1.51s1.72-.32,1.84-1.19c.06-.45.02-.75,0-.86-.22-1.09-2.2-1.42-2.35-2.03-.03-.11-.02-.22,0-.27.04-.17.15-.35.48-.35.3,0,.48.19.48.47v.32h1.3v-.37c0-1.13-1.02-1.31-1.76-1.31-.93,0-1.69.31-1.82,1.16-.04.23-.04.44.01.7.23,1.06,2.08,1.37,2.35,2.05h0Z"/>
      <path id="path26" class="cls-1" d="m53.44,24.66c.37,0,.48-.25.5-.38.01-.06.01-.13.01-.2v-3.9h1.33v3.78c0,.1,0,.3-.01.35-.09.98-.87,1.3-1.84,1.3s-1.75-.32-1.84-1.3c0-.05-.01-.25-.01-.35v-3.78h1.33v3.9c0,.07,0,.14.01.2.03.13.14.38.51.38Z"/>
      <path id="path28" class="cls-1" d="m64.43,24.61c.38,0,.51-.24.54-.38,0-.06.01-.13.01-.2v-.76h-.54v-.77h1.87v1.41c0,.1,0,.17-.02.35-.09.96-.92,1.3-1.85,1.3s-1.76-.34-1.85-1.3c-.02-.18-.02-.25-.02-.35v-2.22c0-.09.01-.26.02-.35.12-.98.91-1.3,1.85-1.3s1.75.31,1.85,1.3c.02.17.01.35.01.35v.18h-1.33v-.29s0-.13-.02-.2c-.02-.12-.12-.38-.52-.38s-.5.25-.52.38c-.02.07-.02.16-.02.25v2.41c0,.07,0,.14.01.2.02.14.16.38.54.38Z"/>
    </g>
  </g>
</svg>