<?xml version="1.0" encoding="UTF-8"?>
<svg id="Layer_23" data-name="Layer 23" xmlns="http://www.w3.org/2000/svg" viewBox="0 0 92 44">
  <defs>
    <style>
      .cls-1 {
        fill-rule: evenodd;
      }
    </style>
  </defs>
  <path class="cls-1" d="m65.26,24.02c-1.54,0-2.66-.17-3.67-.68-2.67-1.36-2.89-4.65-.41-6.27,1.44-.94,3.09-1.19,4.84-1.07,1.12.08,2.17.36,3.07.96,2.19,1.48,2.18,4.48-.02,5.95-1.24.83-2.67,1.1-3.81,1.11h0Zm-.58-6.89c-.78.01-1.68.46-2.21,1.38-.57.99-.56,2,.01,2.99.53.9,1.42,1.36,2.57,1.37,1.11,0,1.98-.42,2.55-1.26.47-.69.58-1.45.42-2.24-.26-1.32-1.46-2.24-3.34-2.24h0Z"/>
  <path class="cls-1" d="m41.12,22.06c.74.26,1.43.55,2.16.74.95.24,1.93.3,2.91.11.21-.04.42-.1.6-.19.7-.32.77-1.03.1-1.39-.39-.21-.87-.32-1.32-.42-.91-.18-1.85-.28-2.74-.49-.92-.22-1.63-.69-1.79-1.58-.26-1.42.56-2.44,2.25-2.8,1.42-.31,2.85-.2,4.27.02.4.06.79.17,1.18.24.2.04.28.11.27.3-.01.49,0,.99,0,1.44-.62-.25-1.2-.54-1.83-.73-.94-.29-1.94-.38-2.93-.22-.25.04-.5.13-.72.24-.61.34-.58,1.02.1,1.26.54.19,1.13.26,1.7.38.8.17,1.62.27,2.39.5,1.17.35,1.73,1.13,1.72,2.18-.01,1.05-.62,1.8-1.77,2.17-.87.29-1.78.33-2.7.33-1.2-.01-2.38-.13-3.55-.4-.22-.05-.31-.14-.3-.34.02-.46,0-.91,0-1.35h0Z"/>
  <path class="cls-1" d="m32.42,16.15h7.27c0,.6,0,1.18,0,1.78-1.35-.65-2.81-.66-4.26-.66-.09,0-.27.08-.27.13-.02.63-.01,1.27-.01,1.96,1.02-.05,2-.11,2.99-.16v1.42c-.86-.05-1.72-.09-2.58-.15-.33-.02-.43.07-.42.35.03.53,0,1.06.02,1.59,0,.08.12.23.19.23,1.19.02,2.38.06,3.54-.2.44-.1.86-.27,1.3-.41v1.77h-7.7c.44-.57.34-1.2.34-1.82,0-1.48,0-2.96,0-4.43,0-.48.02-.96-.4-1.4Z"/>
  <path class="cls-1" d="m58.94,18.03c-.14-.11-.23-.16-.31-.22-1.53-1.12-4-.95-5.16.38-.83.95-.93,2.01-.37,3.08.55,1.05,1.6,1.5,2.88,1.58,1.19.07,2.22-.26,3.08-1.05.02.09.04.14.04.19,0,.51,0,1.02,0,1.53,0,.09-.1.23-.18.25-1.89.42-3.79.57-5.67.01-1.61-.47-2.79-1.35-3.12-2.85-.43-1.94.65-3.65,2.78-4.48,1.41-.55,2.89-.66,4.41-.56.46.03.92.1,1.38.14.18.01.26.07.26.23,0,.57,0,1.13,0,1.77h0Z"/>
  <path class="cls-1" d="m28.31,23.83h-3.15c.5-.62.38-1.3.39-1.97.01-1.43,0-2.86,0-4.29,0-.24-.07-.33-.37-.3-.56.06-1.13.06-1.68.15-.6.1-1.18.29-1.78.44v-1.72h9.98v1.82c-1.16-.59-2.44-.69-3.8-.73v5.15c0,.49-.03.98.4,1.43h0Z"/>
  <path class="cls-1" d="m31.19,28.15c.52-.42,1.05-.83,1.56-1.25.62-.52,1.32-.83,2.2-.83,1.84.01,3.68,0,5.52,0h.31c-.72.55-1.41,1.09-2.13,1.62-.43.32-.96.47-1.53.47-1.94,0-3.88,0-5.83,0-.04,0-.09,0-.1,0h0Z"/>
  <path class="cls-1" d="m61.04,28.14c.58-.47,1.13-.94,1.71-1.39.56-.45,1.21-.69,1.99-.69,1.86.01,3.72,0,5.59,0h.29c-.75.56-1.5,1.14-2.27,1.68-.39.28-.88.4-1.39.4h-5.76c-.05,0-.11-.01-.16-.01h0Z"/>
  <path class="cls-1" d="m21.27,28.15c.69-.55,1.31-1.08,1.98-1.57.5-.36,1.1-.52,1.76-.52,1.95.01,3.91,0,5.92,0-.1.07-.15.11-.2.15-.53.39-1.09.76-1.6,1.17-.61.5-1.29.78-2.15.77-1.78-.02-3.55,0-5.32,0h-.39Z"/>
  <path class="cls-1" d="m41.13,28.15c.53-.43,1.06-.84,1.57-1.27.63-.53,1.34-.82,2.24-.82,1.93.02,3.86,0,5.9,0-.2.11-.33.17-.44.26-.51.38-1.03.76-1.53,1.16-.57.45-1.21.68-1.99.67-1.84-.02-3.68,0-5.53,0h-.22,0Z"/>
  <path class="cls-1" d="m51.11,28.09c.08-.06.17-.12.25-.18.43-.34.87-.66,1.27-1.01.61-.54,1.31-.84,2.19-.84,1.84.01,3.68,0,5.52,0h.29c-.67.51-1.33,1.02-2,1.53-.52.39-1.11.57-1.8.56-1.77-.02-3.55,0-5.32,0h-.39s-.01-.04-.02-.06h0Z"/>
</svg>