<?xml version="1.0" encoding="UTF-8"?>
<svg id="Layer_24" data-name="Layer 24" xmlns="http://www.w3.org/2000/svg" viewBox="0 0 92 44">
  <defs>
    <style>
      .cls-1 {
        fill-rule: evenodd;
      }
    </style>
  </defs>
  <g>
    <polygon points="68.71 26.68 70.32 26.68 70.32 24.75 70.93 24.12 72.54 26.68 74.48 26.68 72.08 23.1 74.23 20.87 72.33 20.87 70.32 23.03 70.32 18.63 68.7 18.63 68.71 26.68 68.71 26.68"/>
    <path class="cls-1" d="m57.98,26.68v-2.78h.91c1.95.04,3.49-.52,3.49-2.67,0-1.75-1.35-2.68-3.31-2.6h-2.8v8.05h1.71m1.17-6.67c.97-.04,1.57.35,1.58,1.24,0,.9-.66,1.27-1.54,1.25h-1.2v-2.49h1.16Z"/>
    <path class="cls-1" d="m63.89,22.69s-.1-.89,1.15-.87c.52.01.99.27.96.72-.02.34-.3.42-.87.51-.92.11-1.57.26-2.01.48-.57.28-1.04.87-1,1.58.07,1.11,1.22,1.76,2.35,1.71,1.31-.06,1.55-.84,1.55-.84.02.13.02.13.05.31.04.26.09.38.09.38h1.65c-.09-.08-.13-.11-.18-.21-.06-.13-.07-.25-.07-.39v-3.33c0-1.63-1.31-2.05-2.6-2.07-2.43-.04-2.43,1.7-2.47,1.97h0l1.41.04h0m.95,2.97c-.49.05-1.12-.09-1.15-.71-.02-.6.83-.77,1.25-.86.35-.07.67-.16.91-.26.14-.06.17-.1.17-.1v.8c-.03.6-.44,1.05-1.19,1.13h0Z"/>
    <polygon points="32.73 26.68 32.73 20.06 35.19 20.06 35.19 18.62 28.6 18.62 28.6 20.06 31.02 20.06 31.02 26.68 32.73 26.68 32.73 26.68"/>
    <path class="cls-1" d="m33.96,23.96c.11,2.15,1.93,2.95,3.01,2.92,2.35-.07,2.81-1.93,2.81-1.93l-1.65-.09s-.26.74-1.17.74c-1.39,0-1.42-1.39-1.42-1.39h4.3s.16-3.46-3.03-3.51c-1.81-.03-2.95,1.49-2.86,3.25h0m4.19-.87h-2.56s.11-1.11,1.26-1.12c1.13-.01,1.3,1.12,1.3,1.12h0Z"/>
    <path d="m44.36,26.68h1.6v-2.63c0-.74.14-1.41.81-1.74.34-.17.61-.19.99-.14v-1.37c-.05-.03-.24-.05-.42-.06-.52-.03-1.01.27-1.3.8-.03.05-.04.08-.09.2l-.05-.83h-1.53v5.78h0Z"/>
    <path d="m39.96,21.99h.8v2.96c0,.48.05,1.08.51,1.42.46.34,1.09.3,1.68.29h.5v-1.19h-.37c-.26,0-.42-.02-.54-.12-.2-.16-.19-.41-.19-.55v-2.82h1.07v-1.1h-1.07v-1.83h-1.58s0,1.83,0,1.83h-.8v1.1h0Z"/>
    <path class="cls-1" d="m49.54,22.69s-.1-.89,1.15-.87c.52.01.99.27.96.73-.02.33-.3.42-.87.5-.92.12-1.57.27-2.01.48-.56.28-1.04.86-1,1.59.07,1.11,1.22,1.76,2.35,1.72,1.31-.06,1.55-.84,1.55-.84.02.13.02.13.05.31.04.26.09.38.09.38h1.65c-.09-.08-.13-.11-.18-.21-.06-.13-.07-.25-.07-.39v-3.33c0-1.64-1.31-2.05-2.6-2.07-2.43-.04-2.43,1.7-2.48,1.97h0l1.41.04h0m.95,2.97c-.49.05-1.12-.09-1.15-.71-.02-.6.83-.77,1.26-.86.35-.07.67-.16.91-.26.14-.06.17-.1.17-.1v.8c-.03.6-.44,1.05-1.19,1.12h0Z"/>
    <polygon points="23.53 24.08 25.42 21.72 23.47 21.72 22.54 22.88 23.53 24.08 23.53 24.08"/>
    <path d="m20,22.9c.38,0,.7.17.94.45.09.1.11.13.18.21.23.29.3.39.44.56-.13.16-.21.27-.44.56-.06.08-.09.11-.18.21-.24.28-.56.44-.94.44-.67,0-1.21-.54-1.21-1.21,0-.67.54-1.22,1.21-1.22h0Z"/>
    <path d="m19.06,26.64c-.23-.06-.46-.19-.53-.23-.76-.48-1.27-1.31-1.27-2.29,0-1.51,1.23-2.74,2.75-2.74.74,0,1.49.29,2.08.97l.03.04.02-.02-2.96-5.11-5.44,9.4h5.31v-.03h0Z"/>
    <path d="m20.99,26.64v.02h3.65v-.03s-.05,0-.11-.02c-.24-.03-.44-.1-.57-.16-.55-.23-1.01-.67-1.41-1.14,0,0-.29.38-.55.67-.39.42-.8.6-1,.65h0Z"/>
  </g>
  <path d="m76.37,17.12c1.04,0,1.89.85,1.89,1.89s-.85,1.89-1.89,1.89-1.89-.85-1.89-1.89.85-1.89,1.89-1.89Zm0,3.45c.86,0,1.55-.7,1.55-1.55s-.7-1.55-1.55-1.55-1.55.7-1.55,1.55.7,1.55,1.55,1.55Zm-.73-2.65h.83c.52,0,.76.23.76.65,0,.38-.22.56-.52.59l.56.92h-.42l-.54-.89h-.29v.89h-.4v-2.16h0Zm.4.94h.29c.24,0,.51-.02.51-.3s-.27-.3-.51-.3h-.29v.6Z"/>
</svg>