<?xml version="1.0" encoding="UTF-8"?>
<svg id="Layer_25" data-name="Layer 25" xmlns="http://www.w3.org/2000/svg" viewBox="0 0 92 44">
  <path d="m46,32.77c-5.89,0-10.72-4.88-10.72-10.77,0-1.22.22-2.4.61-3.53l6.28,12.21c.09.17.17.31.39.31s.31-.13.39-.31l2.92-6.5c.04-.09.09-.13.13-.13.09,0,.09.09.13.13l2.96,6.5c.09.17.17.31.39.31s.31-.13.39-.31l6.28-12.21c.39,1.09.61,2.27.61,3.53-.04,5.89-4.88,10.77-10.77,10.77h0Zm0-13.56c-.09,0-.09-.09-.13-.13l-3.36-7.24c1.09-.39,2.27-.61,3.49-.61s2.4.22,3.49.61l-3.36,7.24s-.04.13-.13.13Zm-3.53,7.85c-.09,0-.09-.09-.13-.13l-5.49-10.55c.96-1.57,2.35-2.88,3.97-3.79l3.88,8.37c.09.17.17.22.31.22h2c.13,0,.22-.04.31-.22l3.84-8.37c1.61.92,3.01,2.22,3.97,3.79l-5.45,10.55c-.04.09-.09.13-.13.13-.09,0-.09-.09-.13-.13l-2.09-4.62c-.09-.17-.17-.22-.31-.22h-2c-.13,0-.22.04-.31.22l-2.09,4.62s-.04.13-.13.13h0Zm3.53,7.15c6.76,0,12.21-5.45,12.21-12.21s-5.45-12.21-12.21-12.21-12.21,5.45-12.21,12.21,5.45,12.21,12.21,12.21Z"/>
</svg>